<svg width="957" height="486" viewBox="0 0 957 486" fill="none" xmlns="http://www.w3.org/2000/svg">
<path d="M66.3704 465.942C66.3704 465.942 15.6062 334.492 89.8705 256.002C185.662 154.765 309.449 239.387 355.897 236.919C402.345 234.451 404.96 137.315 543.744 125.711C651.051 116.74 827.278 116.033 789.681 274.736C761.097 395.398 920.132 332.899 889.166 466.197L66.3704 465.942Z" fill="#EBF2F9"/>
<path d="M933.346 467.162H8.09386C7.59779 467.162 7.19141 466.755 7.19141 466.259V465.493C7.19141 464.996 7.59779 464.59 8.09386 464.59H933.348C933.844 464.59 934.251 464.996 934.251 465.493V466.259C934.251 466.755 933.844 467.162 933.346 467.162Z" fill="#2E3552"/>
<path d="M174.948 296.171L178.034 298.679C178.034 298.679 186.475 295.649 188.381 305.691C188.381 305.691 188.888 309.972 186.181 309.977C183.474 309.986 184.589 309.509 180.755 309.621C176.918 309.733 173.74 307.711 173.179 304.594L171.344 301.955L174.948 296.171Z" fill="#EA8E50"/>
<path d="M174.601 301.554C177.064 298.981 176.866 297.079 176.866 297.079C176.866 297.079 148.351 273.716 145.462 271.812C143.492 270.516 122.494 251.885 112.679 240.524C107.811 234.889 101.78 237.077 94.8799 239.057L89.199 240.69C82.3381 242.659 80.5528 252.263 86.1833 256.931C102.038 270.075 128.413 284.861 133.349 287.966C145.599 295.68 169.581 304.844 169.581 304.844C169.581 304.844 172.488 303.764 174.601 301.554Z" fill="#1E3D70"/>
<path d="M207.137 445.095C207.137 445.095 214.057 450.284 224.659 447.541C224.659 447.541 233.207 445.591 235.082 449.858C235.082 449.858 221.971 456.525 218.653 458.346C216.153 459.72 213.544 461.888 211.7 463.566C210.24 464.893 207.967 464.713 206.722 463.182C206.145 462.472 205.486 461.628 204.763 460.646C202.742 457.902 198.031 449.047 198.031 449.047L207.137 445.095Z" fill="#233862"/>
<path d="M211.202 442.461C211.202 442.461 206.987 452.183 197.262 450.397C197.262 450.397 177.416 433.993 163.801 416.952C159.378 411.418 155.614 405.816 153.403 400.689C144.376 379.769 120.01 348.568 104.52 332.756L143.277 318.723C143.277 318.723 155.693 343.718 172.212 374.419C184.114 396.54 198.147 421.625 211.202 442.461Z" fill="#2B478B"/>
<path d="M213.461 257.839C213.721 255.432 213.791 253.048 213.688 250.703C213.64 249.62 214.243 248.611 215.224 248.156L226.67 242.841C227.9 242.268 228.489 240.849 228.026 239.576L224.074 228.703C223.632 227.483 222.34 226.79 221.078 227.102L209.789 229.876C208.682 230.148 207.533 229.665 206.936 228.692C204.358 224.482 201.121 220.698 197.348 217.5C196.426 216.72 196.166 215.407 196.698 214.322L199.818 207.966C200.414 206.754 200 205.287 198.859 204.563L189.179 198.423C188.03 197.694 186.513 197.966 185.689 199.051L178.896 207.985C176.808 207.455 174.658 207.065 172.455 206.827C169.513 206.507 166.603 206.471 163.756 206.698C162.677 206.782 161.66 206.196 161.203 205.214L156.918 195.974C156.332 194.712 154.88 194.109 153.574 194.586L142.904 198.471C141.604 198.945 140.87 200.319 141.2 201.666L143.515 211.11C143.782 212.196 143.339 213.337 142.4 213.943C139.381 215.893 136.596 218.187 134.104 220.782C133.303 221.615 132.05 221.831 131.013 221.32L120.707 216.254C119.491 215.657 118.02 216.072 117.294 217.217L111.184 226.866C110.444 228.036 110.722 229.576 111.82 230.414L121.854 238.058C122.7 238.703 123.064 239.794 122.79 240.821C122.179 243.101 121.736 245.455 121.473 247.876C121.332 249.158 121.248 250.434 121.215 251.702C121.187 252.74 120.581 253.674 119.64 254.111L108.645 259.219C107.423 259.789 106.837 261.197 107.297 262.467L111.201 273.208C111.675 274.512 113.053 275.25 114.399 274.919L123.345 272.723C124.53 272.431 125.769 272.986 126.33 274.072C128.538 278.355 131.402 282.268 134.802 285.665C135.615 286.479 135.831 287.713 135.323 288.748L130.758 298.046C130.147 299.295 130.57 300.804 131.744 301.547L141.363 307.648C142.515 308.377 144.034 308.105 144.858 307.02L151.52 298.257C152.201 297.362 153.361 296.992 154.437 297.306C157.018 298.06 159.703 298.599 162.472 298.899C163.958 299.062 165.435 299.149 166.901 299.168C167.918 299.183 168.837 299.777 169.266 300.7L173.613 310.074C174.204 311.348 175.67 311.959 176.99 311.48L187.677 307.589C188.955 307.124 189.675 305.772 189.352 304.453L187.506 296.919C187.214 295.732 187.769 294.495 188.851 293.929C194.316 291.07 199.17 287.143 203.105 282.392C203.879 281.455 205.196 281.177 206.286 281.713L214.624 285.814C215.837 286.411 217.303 285.996 218.029 284.854L224.136 275.213C224.882 274.038 224.601 272.487 223.494 271.643L213.87 264.31C213.068 263.702 212.687 262.689 212.878 261.702C213.124 260.42 213.318 259.141 213.461 257.839ZM177.245 276.091C153.201 284.694 133.224 259.682 147.041 238.05C149.115 234.801 153.787 231.04 157.402 229.707C181.477 220.835 201.606 245.73 188.055 267.387C185.914 270.815 181.048 274.731 177.245 276.091Z" fill="#AFCDFB"/>
<path d="M172.213 374.419L163.805 416.952C159.382 411.418 155.618 405.816 153.407 400.689C144.38 379.769 120.014 348.568 104.523 332.756L143.281 318.723C143.278 318.723 155.694 343.718 172.213 374.419Z" fill="#233862"/>
<path d="M140.531 450.739C140.531 450.739 140.108 458.498 149.505 459.533C149.505 459.533 155.178 459.648 155.192 464.587H127.577C127.577 464.587 126.784 462.596 126.591 458.329C126.442 455.053 129.763 446.489 129.763 446.489L140.531 450.739Z" fill="#233862"/>
<path d="M130.566 318.722C130.566 318.722 147.833 337.712 158.794 371.923C164.758 390.537 147.864 437.336 144.571 453.594C144.571 453.594 133.237 454.556 125.488 451.557C125.488 451.557 124.899 417.973 129.431 392.088C131.967 377.603 106.696 361.106 95.6534 334.933C88.1424 317.126 97.2818 317.426 108.512 317L130.566 318.722Z" fill="#2B478B"/>
<path d="M110.633 234.002C101.025 239.433 81.3594 234.423 81.3594 234.423C81.3594 234.423 89.3469 225.284 85.7175 210.566L93.2594 214.401L101.362 218.519C101.362 218.519 101.886 221.119 102.25 225.787C102.343 226.99 102.427 228.331 102.483 229.801C107.416 231.298 110.633 234.002 110.633 234.002Z" fill="#FFB07B"/>
<path d="M145.86 317.741C145.86 319.43 143.915 320.24 143.503 320.322C139.627 321.031 128.809 325.242 119.064 326.21C110.858 327.071 103.238 326.254 94.869 324.571C93.762 324.347 91.1584 323.646 90.9734 322.583C90.7436 321.421 58.687 257.178 83.6052 229.582C84.191 228.934 89.1096 230.101 93.6079 231.169C97.7614 232.157 101.573 231.607 104.975 230.238L109.193 232.46C114.375 235.349 124.176 245.615 125.325 253.669C125.908 257.764 128.248 260.799 128.927 264.401C129.179 265.733 129.434 267.035 129.697 268.305C130.208 270.793 130.734 273.161 131.275 275.413C132.741 281.506 134.288 286.751 135.807 291.281C137.424 296.092 139.011 300.092 140.426 303.438C142.264 307.778 143.817 311.023 144.787 313.506C145.468 315.259 145.86 316.63 145.86 317.741Z" fill="#2A4E96"/>
<path d="M144.783 313.508C99.5317 292.17 83.8594 251.197 83.8594 251.197C83.8594 251.197 120.624 264.771 129.694 268.305C130.204 270.793 130.731 273.161 131.272 275.413C132.737 281.506 134.284 286.751 135.803 291.281C137.421 296.092 139.007 300.092 140.422 303.438C142.261 307.783 143.813 311.026 144.783 313.508Z" fill="#1E3D70"/>
<path d="M171.259 301.143L175.169 302.579C175.169 302.579 182.999 297.037 187.876 306.052C187.876 306.052 189.639 309.99 186.847 310.843C184.056 311.699 185.07 310.893 181.147 312.201C177.223 313.508 173.358 312.565 171.876 309.76L169.219 307.808L171.259 301.143Z" fill="#FFB07B"/>
<path d="M174.478 306.678C175.924 302.902 176.583 301.191 176.583 301.191C176.583 301.191 147.035 277.088 144.024 275.02C141.973 273.612 121.55 258.33 111.592 246.423C106.654 240.516 98.8656 237.817 91.3321 239.396L85.1299 240.698C77.6412 242.269 75.2057 251.758 81.0156 256.743C97.3774 270.782 124.975 287.065 130.121 290.451C142.895 298.86 171.148 310.641 171.148 310.641C171.148 310.641 173.343 309.643 174.478 306.678Z" fill="#2A4E96"/>
<path d="M102.251 225.789C92.8035 226.319 86.6602 218.513 86.6602 218.513C86.6602 218.513 90.9314 216.145 93.2604 214.4L101.363 218.518C101.363 218.521 101.887 221.121 102.251 225.789Z" fill="#EA8E50"/>
<path d="M106.276 216.081C106.276 216.081 91.9633 226.361 85.7022 217.343C79.4411 208.322 73.379 203.576 82.2549 196.63C91.1281 189.685 95.3124 191.879 98.1347 194.381C100.954 196.88 109.838 213.175 106.276 216.081Z" fill="#FFB07B"/>
<path d="M99.6434 186.233C99.1305 182.766 97.9759 180.325 97.9759 180.325C97.9759 180.325 97.079 184.05 90.277 183.534C83.4778 183.021 72.6989 184.205 69.1059 191.96C68.8761 192.454 68.6743 192.962 68.4921 193.481C67.8419 191.761 67.6849 189.183 67.6849 189.183C66.3929 192.521 67.6849 196.698 67.6849 196.698C67.6653 196.819 67.6485 196.942 67.6317 197.063C66.1295 198.334 64.8711 202.28 64.8711 202.28C65.3251 201.181 66.4294 200.46 67.4131 200.019C67.3823 206.053 69.829 211.955 74.1198 213.711C80.3949 216.28 80.3445 214.319 86.6588 218.51C86.6588 218.51 88.3516 216.406 87.1969 214.995C86.0422 213.582 81.6785 211.528 84.1168 209.472C86.5551 207.419 87.4519 209.73 88.3516 208.317C89.2484 206.903 84.7586 202.794 90.532 198.942C96.3083 195.094 100.156 189.7 99.6434 186.233Z" fill="#233862"/>
<path d="M766.906 451.937C766.906 451.937 767.677 464.386 770.084 464.562C770.404 464.588 782.287 464.588 782.287 464.588H797.475C797.475 464.588 797.357 460.84 792.923 460.069C788.489 459.294 781.068 456.175 778.38 450.31C775.555 444.139 766.906 451.937 766.906 451.937Z" fill="#163560"/>
<path d="M706.83 349.628C708.996 353.729 711.502 357.572 714.083 361.21C722.062 372.453 730.748 381.723 732.261 390.486C732.561 392.234 733.04 394.113 733.662 396.093C734.296 398.102 735.075 400.211 735.977 402.394C739.363 410.604 744.427 419.802 749.483 428.163C758.222 442.618 766.442 454.679 766.442 454.679L781.515 453.964C780.912 452.278 774.337 432.32 765.545 407.931C761.975 398.029 758.177 387.499 754.514 377.342C754.026 375.987 753.539 374.635 753.054 373.297C751.933 370.189 750.831 367.129 749.755 364.15C741.499 341.247 734.921 323.011 734.921 323.011C734.921 323.011 701.92 309.059 698.492 318.099C695.664 325.552 697.968 332.854 706.83 349.628Z" fill="#599DAD"/>
<path d="M734.551 438.444C734.551 438.444 729.03 443.563 730.109 447.204C731.185 450.842 736.168 453.269 736.84 457.715C737.513 462.16 740.206 464.587 742.631 464.587C745.055 464.587 754.183 464.587 754.183 464.587C754.183 464.587 755.968 461.456 751.658 460.514C747.35 459.571 745.725 454.346 745.994 449.493C746.263 444.643 745.59 438.175 745.59 438.175L736.434 436.018L734.551 438.444Z" fill="#233862"/>
<path d="M739.427 321.292C739.427 321.292 774.154 377.67 774.154 382.156C774.154 392.077 747.916 449.199 747.916 449.199C747.916 449.199 733.99 441.835 734.547 436.666C734.547 436.666 742.902 396.565 745.335 390.122C747.765 383.676 701.446 359.393 699.016 330.052L739.427 321.292Z" fill="#6BB7BF"/>
<path d="M756.456 292.302C756.456 292.302 763.616 296.377 765.623 296.377C767.627 296.377 775.497 294.854 777.691 295.976C779.886 297.098 783.854 301.612 784.6 303.087C785.939 305.738 779.207 304.568 776.024 302.31C775.561 301.982 774.987 301.861 774.434 301.982C772.787 302.341 769.362 302.964 767.708 302.352C765.486 301.527 753.773 300.613 753.773 300.613L756.456 292.302Z" fill="#E49963"/>
<path d="M701.969 236.79C701.969 236.79 709.393 289.601 721.685 294.333C727.75 296.667 754.557 301.957 762.489 302.49C762.489 302.49 764.431 300.913 763.958 294.493C763.958 294.493 735.872 284.173 731.881 278.56C725.943 270.207 735.567 244.437 728.117 236.591C720.668 228.743 708.118 225.371 701.969 236.79Z" fill="#ED7D2B"/>
<path d="M730.993 233.461C721.069 236.028 704.617 226.827 704.617 226.827C704.617 226.827 711.004 222.53 713.373 213.091C713.493 212.614 713.6 212.129 713.698 211.627C714.738 211.405 716.697 210.99 718.793 210.544L726.371 217.341C726.371 217.341 726.198 220.162 725.25 225.012C725.088 225.859 724.897 226.765 724.678 227.733C728.751 230.261 730.993 233.461 730.993 233.461Z" fill="#E49963"/>
<path d="M694.11 274.63C695.531 293.763 693.661 322.866 695.273 327.906C696.666 332.254 712.52 329.671 718.851 328.218C721.194 327.679 724.031 326.913 726.962 326.004C735.137 323.472 744.044 319.853 745 317.169C745.036 317.062 745.07 316.961 745.09 316.86C745.177 316.47 745.157 316.106 745.073 315.735C744.753 314.366 743.526 312.885 743.383 309.497C743.22 305.713 743.245 301.256 743.103 296.465C743.094 295.926 743.089 295.337 743.03 294.799L743.027 294.602C743.024 294.498 743.021 294.397 743.018 294.296C742.881 288.953 742.601 283.334 742.279 277.761C742.071 274.26 741.836 270.796 741.561 267.475C740.849 258.902 739.888 251.281 738.616 246.462C736.539 238.608 731.956 233.483 727.783 229.73L724.768 227.141C721.402 227.876 717.422 227.388 713.821 225.682C709.925 223.831 708.58 222.504 707.901 223.004C698.902 229.949 692.431 251.239 694.11 274.63Z" fill="#F99746"/>
<path d="M726.964 326.007C735.139 323.474 744.046 319.856 745.002 317.171C745.038 317.065 745.072 316.964 745.091 316.863C745.086 316.487 745.08 316.114 745.075 315.738C744.755 314.369 743.528 312.888 743.385 309.5C743.222 305.716 743.247 301.258 743.104 296.467C743.096 295.929 743.09 295.34 743.031 294.801L743.029 294.605C743.026 294.501 743.023 294.4 743.02 294.299L709.972 252.159C709.972 252.156 687.758 298.453 726.964 326.007Z" fill="#ED7D2B"/>
<path d="M726.376 217.343C726.376 217.343 726.203 220.165 725.255 225.015C717.854 222.62 714.496 215.93 713.375 213.091C713.496 212.614 713.602 212.129 713.7 211.627C714.74 211.405 716.699 210.99 718.795 210.544L726.376 217.343Z" fill="#D68D5D"/>
<path d="M727.369 221.621C727.369 221.621 711.226 218.925 713.059 208.889C714.892 198.855 714.043 191.747 724.427 193.043C734.81 194.339 736.108 198.535 736.31 202.033C736.512 205.531 731.615 222.061 727.369 221.621Z" fill="#E49963"/>
<path d="M790.905 307.482L792.328 307.945L804.446 270.642L803.023 270.179L790.905 307.482Z" fill="#4A75CB"/>
<path d="M751.179 307.099L792.297 307.976L792.349 305.513L751.232 304.637L751.179 307.099Z" fill="#4A75CB"/>
<path d="M752.039 309.032C752.039 309.032 765.251 312.518 770.206 312.151C775.161 311.786 779.281 309.427 779.903 308.196C780.525 306.964 781.837 304.782 778.462 305.183C775.091 305.587 770.486 306.305 770.343 305.654C770.2 305.006 773.092 305.068 773.092 305.068C773.092 305.068 773.967 303.795 772.865 303.75C771.764 303.705 768.555 302.832 767.361 303.427C766.17 304.025 765.068 306.227 764.197 306.137C763.325 306.044 753.14 301.545 753.14 301.545L752.039 309.032Z" fill="#E49963"/>
<path d="M705.25 238.956C705.25 238.956 706.811 292.265 718.509 298.321C724.28 301.311 750.342 309.527 758.167 310.93C758.167 310.93 760.271 309.575 760.51 303.143C760.51 303.143 733.73 289.786 730.384 283.769C725.401 274.812 737.808 250.26 731.264 241.64C724.72 233.023 712.618 228.285 705.25 238.956Z" fill="#F99746"/>
<path d="M713.374 213.091C713.374 213.091 713.189 209.649 715.311 207.674C715.311 207.674 714.571 204.221 715.936 203.652C717.301 203.082 717.584 205.986 718.209 205.528C718.834 205.074 721.62 202.911 722.814 199.725C724.008 196.538 734.935 200.398 736.207 200.97C737.48 201.542 741.574 199.439 742.37 197.73C742.37 197.73 740.095 195.91 739.072 194.544C738.049 193.178 730.885 183.96 720.88 186.578C710.874 189.195 709.51 193.974 710.078 198.073C710.65 202.173 709.277 211.716 713.374 213.091Z" fill="#2B478B"/>
<path d="M697.399 328.765L666.127 309.906C663.537 308.31 662.063 305.401 662.301 302.372C662.621 298.504 662.781 294.596 662.781 290.65C662.781 283.315 662.262 276.136 661.147 269.16C660.628 265.89 662.103 262.661 664.93 260.987L697.595 241.25C701.101 239.177 702.416 234.712 700.583 231.004L685.205 199.666C683.453 196.117 679.35 194.482 675.645 195.798L642.621 207.797C639.435 209.034 635.808 207.957 633.659 205.166C624.575 193.405 613.62 183.119 601.232 174.707C598.244 172.673 597.008 168.765 598.244 165.377L605.576 145.282C606.93 141.453 605.257 137.147 601.594 135.313L570.481 120.081C569.845 119.762 569.206 119.523 568.531 119.402C565.344 118.724 561.959 120.16 560.246 123.071L546.143 146.435L542.719 152.137C536.306 151.22 529.692 150.743 523.038 150.743C514.076 150.743 505.272 151.579 496.825 153.175C493.599 153.773 490.332 152.378 488.658 149.548L472.804 123.192C470.612 119.604 466.072 118.247 462.328 120.123L438.385 131.885L431.532 135.273C427.788 137.108 425.994 141.492 427.429 145.4L437.429 173.029C438.623 176.218 437.667 179.806 435.038 181.882C427.269 188.221 420.179 195.357 413.965 203.172C413.368 203.809 412.889 204.448 412.373 205.127C412.214 205.366 412.015 205.565 411.816 205.764C409.624 208.117 406.238 208.875 403.212 207.758L370.586 195.918C370.227 195.758 369.829 195.68 369.471 195.598C365.965 194.88 362.301 196.636 360.668 199.904L345.449 230.922C343.616 234.67 344.931 239.175 348.518 241.368L381.144 261.026C383.932 262.661 385.367 265.85 384.849 269.04C383.773 276.058 383.215 283.273 383.215 290.65C383.215 294.557 383.375 298.425 383.694 302.251C383.932 305.362 382.419 308.352 379.751 309.946L348.358 328.924C344.894 330.997 343.577 335.424 345.371 339.093L360.628 370.071C362.461 373.819 366.803 375.614 370.788 374.178L396.92 364.689C400.426 363.412 404.291 364.689 406.362 367.76C414.369 379.92 424.248 390.725 435.562 399.855C438.27 401.967 439.307 405.636 438.11 408.907L427.435 438.332C426 442.279 427.794 446.666 431.538 448.539L462.412 463.732C466.117 465.566 470.618 464.211 472.689 460.702L473.527 459.347L489.9 432.195C491.652 429.283 494.959 427.81 498.305 428.408H498.344C506.351 429.844 514.597 430.601 523.044 430.601C527.545 430.601 531.968 430.363 536.39 429.965C539.456 429.645 542.405 431.12 543.999 433.751L560.092 460.506C562.284 464.175 566.945 465.53 570.728 463.656L601.563 448.464C602.44 448.026 603.197 447.426 603.833 446.789C605.865 444.638 606.621 441.406 605.585 438.495L597.538 416.447C596.582 413.735 597.14 410.705 598.931 408.554C599.41 407.996 599.968 407.477 600.604 407.039C616.139 396.672 629.407 383.317 639.723 367.726C641.436 365.056 644.622 363.78 647.691 364.299C648.129 364.38 648.569 364.498 649.006 364.658L675.418 374.265C679.241 375.659 683.503 373.945 685.336 370.279L685.695 369.561L700.555 339.34C702.379 335.502 701.026 330.958 697.399 328.765ZM450.531 269.158C452.045 263.775 454.116 258.313 456.826 252.849C462.005 242.442 474.791 229.565 485.231 224.42C486.346 223.862 487.462 223.343 488.577 222.827C556.858 192.126 622.706 259.228 589.601 327.606C585.26 336.537 575.658 347.023 566.297 353.522C564.105 354.997 561.956 356.313 559.924 357.269C550.403 361.895 540.922 364.604 531.679 365.642C479.017 371.508 435.675 323.065 450.531 269.158Z" fill="#AFCDFB"/>
<path d="M700.516 434.284L693.538 430.073C692.961 429.717 692.63 429.066 692.683 428.39C692.753 427.527 692.79 426.654 692.79 425.773C692.79 424.135 692.675 422.534 692.425 420.977C692.31 420.247 692.638 419.527 693.269 419.154L700.558 414.75C701.34 414.287 701.635 413.291 701.226 412.463L697.792 405.471C697.4 404.68 696.486 404.315 695.659 404.607L688.289 407.285C687.577 407.56 686.767 407.322 686.287 406.699C684.261 404.074 681.814 401.779 679.051 399.9C678.384 399.445 678.109 398.573 678.384 397.818L680.021 393.333C680.324 392.48 679.951 391.518 679.132 391.109L672.187 387.709C672.044 387.639 671.902 387.586 671.753 387.558C671.041 387.406 670.287 387.726 669.903 388.377L666.756 393.591L665.991 394.865C664.559 394.66 663.084 394.553 661.599 394.553C659.598 394.553 657.633 394.741 655.75 395.095C655.03 395.229 654.301 394.918 653.928 394.284L650.388 388.402C649.901 387.6 648.886 387.3 648.051 387.718L642.706 390.343L641.176 391.1C640.341 391.51 639.94 392.489 640.26 393.361L642.491 399.527C642.757 400.239 642.544 401.039 641.958 401.501C640.226 402.915 638.643 404.508 637.255 406.253C637.121 406.396 637.014 406.539 636.899 406.688C636.863 406.741 636.818 406.786 636.776 406.831C636.286 407.356 635.532 407.524 634.856 407.277L627.575 404.635C627.494 404.598 627.407 404.581 627.326 404.565C626.544 404.405 625.725 404.797 625.361 405.527L621.964 412.449C621.555 413.285 621.849 414.292 622.648 414.78L629.929 419.168C630.551 419.532 630.871 420.245 630.756 420.957C630.515 422.522 630.392 424.132 630.392 425.779C630.392 426.651 630.428 427.515 630.498 428.368C630.551 429.061 630.212 429.728 629.618 430.085L622.612 434.32C621.838 434.783 621.544 435.771 621.944 436.59L625.35 443.504C625.759 444.34 626.729 444.741 627.617 444.421L633.449 442.303C634.231 442.017 635.094 442.303 635.557 442.988C637.345 445.703 639.548 448.113 642.073 450.152C642.678 450.623 642.908 451.442 642.642 452.172L640.26 458.738C639.94 459.619 640.341 460.598 641.176 461.016L648.065 464.407C648.892 464.817 649.898 464.514 650.358 463.731L650.545 463.428L654.2 457.369C654.592 456.719 655.33 456.39 656.075 456.525H656.083C657.872 456.845 659.71 457.013 661.596 457.013C662.6 457.013 663.586 456.96 664.575 456.87C665.259 456.8 665.918 457.128 666.274 457.714L669.867 463.686C670.357 464.505 671.397 464.808 672.241 464.39L679.121 460.999C679.317 460.901 679.485 460.766 679.628 460.626C680.082 460.146 680.251 459.425 680.021 458.775L678.224 453.855C678.011 453.249 678.135 452.573 678.535 452.093C678.642 451.97 678.768 451.852 678.908 451.754C682.375 449.439 685.337 446.458 687.638 442.979C688.02 442.382 688.731 442.099 689.415 442.214C689.513 442.231 689.611 442.259 689.707 442.295L695.601 444.438C696.453 444.749 697.406 444.368 697.815 443.549L697.896 443.389L701.212 436.643C701.626 435.787 701.324 434.772 700.516 434.284ZM645.419 420.98C645.759 419.779 646.221 418.559 646.824 417.341C647.978 415.019 650.834 412.144 653.163 410.996C653.413 410.873 653.662 410.755 653.911 410.64C669.149 403.788 683.846 418.764 676.459 434.026C675.489 436.02 673.348 438.36 671.257 439.81C670.769 440.141 670.287 440.432 669.836 440.646C667.712 441.678 665.596 442.284 663.533 442.514C651.776 443.821 642.104 433.01 645.419 420.98Z" fill="#F99746"/>
<path d="M929.437 304.016L918.977 297.707C918.111 297.174 917.618 296.201 917.697 295.186C917.803 293.892 917.856 292.585 917.856 291.264C917.856 288.81 917.683 286.411 917.31 284.075C917.136 282.981 917.629 281.901 918.577 281.34L929.504 274.74C930.676 274.047 931.116 272.552 930.505 271.312L925.362 260.83C924.776 259.643 923.403 259.096 922.164 259.536L911.119 263.55C910.054 263.963 908.84 263.604 908.12 262.67C905.082 258.737 901.419 255.295 897.274 252.482C896.276 251.803 895.861 250.496 896.276 249.363L898.728 242.642C899.182 241.363 898.622 239.921 897.397 239.307L886.991 234.213C886.778 234.106 886.565 234.027 886.338 233.985C885.273 233.758 884.141 234.238 883.566 235.214L878.849 243.029L877.703 244.936C875.559 244.63 873.345 244.471 871.12 244.471C868.121 244.471 865.178 244.751 862.353 245.284C861.274 245.483 860.181 245.018 859.62 244.069L854.318 235.253C853.583 234.053 852.064 233.598 850.814 234.227L842.807 238.162L840.515 239.295C839.262 239.91 838.662 241.377 839.141 242.684L842.485 251.926C842.886 252.992 842.563 254.193 841.686 254.886C839.088 257.006 836.717 259.393 834.638 262.008C834.439 262.221 834.279 262.434 834.105 262.661C834.052 262.743 833.985 262.807 833.917 262.874C833.183 263.663 832.051 263.915 831.039 263.542L820.126 259.581C820.005 259.528 819.873 259.5 819.753 259.475C818.581 259.233 817.354 259.823 816.807 260.914L811.718 271.29C811.104 272.543 811.544 274.05 812.743 274.785L823.657 281.36C824.59 281.907 825.069 282.972 824.896 284.041C824.537 286.389 824.349 288.801 824.349 291.27C824.349 292.577 824.402 293.87 824.509 295.149C824.587 296.19 824.083 297.188 823.189 297.724L812.69 304.072C811.53 304.765 811.09 306.246 811.69 307.472L816.793 317.833C817.407 319.087 818.859 319.688 820.19 319.208L828.931 316.033C830.103 315.606 831.398 316.033 832.09 317.059C834.769 321.127 838.074 324.739 841.857 327.794C842.762 328.501 843.11 329.727 842.709 330.821L839.139 340.664C838.659 341.985 839.259 343.452 840.512 344.077L850.84 349.157C852.078 349.772 853.583 349.317 854.278 348.145L854.559 347.69L860.035 338.607C860.621 337.634 861.728 337.14 862.846 337.34H862.86C865.539 337.819 868.297 338.075 871.122 338.075C872.627 338.075 874.107 337.993 875.587 337.861C876.613 337.755 877.599 338.248 878.132 339.129L883.516 348.077C884.25 349.306 885.808 349.758 887.072 349.132L897.386 344.052C897.68 343.906 897.932 343.704 898.145 343.491C898.824 342.77 899.079 341.69 898.731 340.717L896.041 333.342C895.721 332.436 895.906 331.421 896.506 330.703C896.666 330.515 896.853 330.344 897.066 330.195C902.262 326.728 906.699 322.26 910.152 317.045C910.724 316.15 911.791 315.724 912.817 315.898C912.963 315.923 913.111 315.965 913.257 316.019L922.091 319.233C923.369 319.699 924.796 319.127 925.409 317.901L925.53 317.659L930.499 307.55C931.104 306.271 930.65 304.751 929.437 304.016ZM846.865 284.078C847.373 282.277 848.065 280.451 848.97 278.622C850.702 275.141 854.979 270.835 858.471 269.113C858.844 268.925 859.217 268.754 859.589 268.58C882.428 258.311 904.454 280.757 893.381 303.626C891.929 306.613 888.717 310.12 885.587 312.293C884.852 312.787 884.135 313.228 883.454 313.547C880.27 315.093 877.098 316.002 874.006 316.347C856.394 318.313 841.896 302.108 846.865 284.078Z" fill="#EBF2F9"/>
<path d="M435.498 107.495L424.419 102.353C423.5 101.916 422.906 101.001 422.875 99.9859C422.841 98.6872 422.755 97.3828 422.612 96.0701C422.348 93.6297 421.917 91.2622 421.294 88.9818C421.003 87.913 421.378 86.7854 422.258 86.1262L432.41 78.3843C433.5 77.5681 433.777 76.0365 433.035 74.8696L426.793 65.0043C426.084 63.8879 424.66 63.4924 423.475 64.0646L412.926 69.2483C411.911 69.7729 410.667 69.5457 409.851 68.6958C406.407 65.1137 402.393 62.0871 397.971 59.7365C396.903 59.1671 396.354 57.9132 396.642 56.7407L398.358 49.7954C398.671 48.4743 397.96 47.1026 396.673 46.6258L385.779 42.6847C385.555 42.6005 385.336 42.5444 385.107 42.5304C384.022 42.421 382.949 43.0185 382.483 44.0507L378.635 52.3284L377.702 54.348C375.536 54.2751 373.319 54.3536 371.108 54.5949C368.125 54.9174 365.23 55.5149 362.478 56.348C361.427 56.6622 360.292 56.3171 359.634 55.4364L353.412 47.2457C352.554 46.1321 350.996 45.846 349.819 46.6033L342.282 51.3775L340.124 52.7519C338.944 53.4981 338.507 55.0212 339.124 56.2667L343.445 65.0941C343.958 66.1123 343.768 67.3381 342.969 68.1235C340.615 70.5106 338.513 73.1417 336.728 75.9636C336.551 76.1964 336.416 76.4264 336.268 76.6705C336.223 76.7546 336.164 76.8303 336.105 76.9033C335.461 77.7644 334.362 78.1375 333.317 77.8766L322.042 75.1165C321.916 75.0772 321.781 75.0632 321.658 75.052C320.467 74.9398 319.309 75.655 318.886 76.8023L314.943 87.6662C314.469 88.9789 315.069 90.4291 316.338 91.0294L327.896 96.387C328.883 96.8302 329.474 97.84 329.418 98.9172C329.315 101.29 329.387 103.708 329.654 106.163C329.794 107.461 329.987 108.743 330.231 110.003C330.422 111.029 330.026 112.076 329.197 112.704L319.441 120.148C318.362 120.962 318.084 122.482 318.813 123.638L325.004 133.388C325.75 134.569 327.257 135.01 328.53 134.387L336.879 130.289C338 129.739 339.328 130.022 340.13 130.967C343.23 134.723 346.904 137.958 350.996 140.586C351.974 141.192 352.45 142.373 352.17 143.503L349.679 153.671C349.345 155.035 350.099 156.429 351.411 156.917L362.223 160.855C363.521 161.332 364.97 160.718 365.533 159.478L365.763 158.998L370.23 149.38C370.71 148.347 371.755 147.739 372.89 147.817H372.904C375.617 148.005 378.389 147.96 381.197 147.655C382.694 147.492 384.157 147.253 385.611 146.962C386.62 146.746 387.654 147.13 388.279 147.946L394.594 156.263C395.454 157.405 397.054 157.685 398.243 156.928L407.948 150.765C408.223 150.589 408.453 150.361 408.643 150.126C409.24 149.338 409.378 148.235 408.926 147.304L405.457 140.263C405.042 139.397 405.118 138.37 405.636 137.587C405.773 137.385 405.941 137.192 406.138 137.024C410.93 133.015 414.859 128.095 417.729 122.538C418.203 121.587 419.218 121.049 420.255 121.111C420.403 121.122 420.554 121.144 420.703 121.184L429.831 123.425C431.154 123.75 432.508 123.026 432.987 121.742L433.079 121.489L436.933 110.903C437.396 109.554 436.782 108.092 435.498 107.495ZM351.259 96.5806C351.568 94.7349 352.061 92.8443 352.764 90.9313C354.112 87.2847 357.899 82.5414 361.186 80.4545C361.536 80.2272 361.89 80.0169 362.243 79.8037C383.843 67.1305 408.156 87.0687 399.61 111.001C398.489 114.129 395.673 117.961 392.794 120.46C392.119 121.029 391.452 121.545 390.81 121.935C387.811 123.817 384.756 125.06 381.718 125.739C364.418 129.587 348.26 115.041 351.259 96.5806Z" fill="#EBF2F9"/>
<path d="M502.821 419.711C503.466 420.452 503.547 421.279 503.23 422.16C503.23 422.163 503.228 422.169 503.225 422.171C502.633 423.804 500.683 425.627 498.418 427.45C498.13 427.683 497.872 427.897 497.647 428.093C497.589 428.143 497.53 428.197 497.474 428.247C497.429 428.286 497.384 428.328 497.339 428.368C495.226 430.317 496.022 430.763 492.224 434.721C487.897 439.229 484.915 439.31 484.069 438.898C483.351 438.547 484.809 436.157 486.423 433.47C486.501 433.341 486.577 433.209 486.658 433.077C486.874 432.721 487.087 432.356 487.3 431.997C489.192 428.763 488.707 427.246 488.259 422.432C487.894 418.522 482.18 400.584 482.18 400.584L490.476 399.153C490.476 399.153 492.973 413.437 495.725 415.636C497.196 416.808 498.844 416.822 500.26 417.692C500.36 417.751 500.459 417.815 500.554 417.877C501.355 418.418 502.174 418.971 502.821 419.711Z" fill="#E49963"/>
<path d="M502.815 419.712C503.46 420.453 503.541 421.28 503.224 422.161C503.224 422.164 503.222 422.169 503.219 422.172C502.496 423.805 500.593 425.617 498.404 427.434C498.118 427.673 497.866 427.892 497.642 428.094C497.583 428.144 497.524 428.197 497.468 428.248C497.423 428.287 497.378 428.329 497.333 428.368C495.22 430.318 496.016 430.764 492.219 434.722C487.891 439.23 484.909 439.311 484.063 438.899C483.345 438.548 484.803 436.158 486.417 433.471C487.261 433.162 491.173 431.572 494.133 427.779C496.739 424.45 498.477 420.175 500.251 417.695C500.352 417.754 500.45 417.819 500.545 417.88C501.349 418.419 502.168 418.972 502.815 419.712Z" fill="#C65447"/>
<path d="M435.935 414.525C435.423 417.086 431.774 416.66 427.696 415.664C423.618 414.668 424.588 415.852 418.783 415.21C412.979 414.567 411.222 412.402 411.045 411.538C410.888 410.772 413.755 410.5 416.83 410.147C417.217 410.102 417.606 410.054 417.993 410.006C421.465 409.572 424.007 407.328 427.163 405.485C430.151 403.74 434.61 396.632 434.61 396.632L442.569 397.263C442.569 397.263 438.393 403.611 436.776 406.371C435.826 407.995 435.877 410.141 435.994 411.799C436.056 412.702 436.115 413.625 435.935 414.525Z" fill="#E49963"/>
<path d="M427.696 415.664C423.618 414.668 424.588 415.852 418.783 415.21C412.979 414.567 411.222 412.402 411.045 411.538C410.888 410.772 413.755 410.5 416.83 410.147L416.858 410.206C416.858 410.206 420.339 412.674 425.171 412.792C429.108 412.887 433.279 411.76 435.997 411.804C436.059 412.705 436.118 413.625 435.935 414.528C435.423 417.089 431.774 416.663 427.696 415.664Z" fill="#C65447"/>
<path d="M453.637 297.53C453.637 297.53 451.742 292.879 449.654 292.691C447.569 292.5 440.933 291.457 440.459 292.405C439.985 293.353 440.459 296.77 441.88 298.004C443.304 299.238 452.121 301.23 452.121 301.23L453.637 297.53Z" fill="#E49963"/>
<path d="M466.438 363.591L483.59 409.79C483.59 409.79 486.224 410.045 488.752 409.316C491.075 408.646 493.741 406.884 493.741 406.884C493.741 406.884 489.486 362.523 481.684 353.297C473.884 344.074 466.438 363.591 466.438 363.591Z" fill="#AA413E"/>
<path d="M534.275 344.902C534.275 344.902 484.988 328.223 473.996 331.772C463.004 335.32 430 401.039 430 401.039C430 401.039 430.745 402.032 432.777 402.795C434.669 403.505 439.246 403.46 439.246 403.46C439.246 403.46 469.03 377.909 472.578 370.456C476.123 363.003 477.541 355.906 481.086 356.616C484.632 357.326 526.828 374.004 536.402 364.069C545.976 354.131 543.473 341.222 543.473 341.222L534.275 344.902Z" fill="#C65447"/>
<path d="M504.153 267.306C503.365 265.679 502.485 262.79 502.053 257.64C502.121 258.15 503.006 264.647 505.503 268.321C515.753 275.056 535.399 297.547 535.012 301.808C535.012 301.808 541.932 290.06 542.053 289.99C542.053 289.99 554.819 273.744 539.69 264.436C532 259.707 532.039 253.637 532.361 248.364C532.686 243.09 530.265 220.389 514.861 226.33C514.861 226.33 512.389 225.231 511.282 225.396C511.282 225.396 512.188 225.57 512.647 226.044C510.862 225.937 508.309 226.069 506.179 227.281C500.526 230.498 495.473 259.312 504.153 267.306Z" fill="#B5453C"/>
<path d="M506.118 268.661C506.067 268.683 511.067 271.284 514.828 270.254C518.365 269.289 520.677 264.697 520.63 264.686C519.13 264.389 518.699 262.327 518.732 253.472L518.054 253.606L506.664 255.864C506.664 255.864 506.922 259.452 506.93 262.832C506.939 265.665 506.768 268.358 506.118 268.661Z" fill="#E49963"/>
<path d="M506.664 255.862C506.664 255.862 506.922 259.449 506.93 262.829C513.303 262.65 516.672 256.832 518.051 253.606L506.664 255.862Z" fill="#D68D5D"/>
<path d="M519.228 252.363C519.228 252.363 522.569 247.082 523.37 242.565C523.942 239.34 522.303 227.39 510.302 229.11C510.302 229.11 506.818 229.455 503.542 231.668C500.935 233.429 497.177 237.23 501.381 247.659L502.474 251.182L519.228 252.363Z" fill="#B5453C"/>
<path d="M504.536 259.062C504.536 259.062 519.614 259.312 519.625 249.909C519.636 240.51 521.587 234.209 511.963 233.654C502.336 233.099 500.461 236.683 499.696 239.82C498.931 242.956 500.615 258.753 504.536 259.062Z" fill="#E49963"/>
<path d="M505.094 233.424C505.094 233.424 509.222 244.454 515.559 246.083C521.896 247.713 524.642 246.016 524.642 246.016C524.642 246.016 519.782 242.151 518.773 235.407C518.776 235.405 508.21 228.176 505.094 233.424Z" fill="#B5453C"/>
<path d="M506.119 234.319C506.119 234.319 503.036 236.781 502.285 239.174C501.534 241.567 501.195 246.495 499.76 246.327C499.76 246.327 496.649 238.832 500.144 234.591C503.852 230.097 506.119 234.319 506.119 234.319Z" fill="#B5453C"/>
<path d="M539.694 309.261C541.182 303.02 536.12 290.908 530.84 280.88C526.048 271.792 521.076 264.42 520.628 264.684C507.99 272.19 506.847 265.949 506.847 265.949C506.847 265.949 495.367 267.475 492.116 273.076C487.621 280.821 482.725 304.058 477.912 303.716C475.704 303.559 453.482 295.197 453.482 295.197C453.482 295.197 449.78 298.667 450.489 302.927C450.489 302.927 461.461 310.282 470.738 314.972C475.645 317.455 480.079 319.191 482.164 318.7C486.39 317.704 492.993 307.898 496.561 302.125C496.57 302.111 496.578 302.1 496.584 302.086C501.138 327.881 494.947 333.758 498.08 336.476C501.39 339.348 506.118 335.107 516.519 339.62C523.34 342.582 532.808 346.865 539.184 347.609C542.527 348.002 545.022 347.421 545.834 345.16C548.205 338.596 536.858 321.16 539.694 309.261Z" fill="#699DEE"/>
<path d="M507.885 253.362C507.885 253.362 507.604 254.557 504.636 254.372C504.636 254.372 502.145 254.218 502.22 252.905C502.22 252.905 504.636 251.974 507.885 253.362Z" fill="white"/>
<path d="M545.843 345.162C545.031 347.421 542.536 348.004 539.193 347.611C534.781 345.687 515.726 338.299 515.939 333.292C516.256 325.878 519.602 325.642 517.24 316.492C515.342 309.146 532.948 295.485 535.757 292.518C541.037 302.546 541.183 303.02 539.697 309.261C536.861 321.16 548.209 338.596 545.843 345.162Z" fill="#4A75CB"/>
<path d="M496.574 302.125C493.006 307.898 486.403 317.704 482.176 318.7C480.091 319.193 475.657 317.454 470.75 314.972C474.332 315.898 477.813 315.872 481.193 315.544C484.856 315.188 485.921 310.694 491.711 303.951C495.466 299.581 496.389 300.68 496.574 302.125Z" fill="#4A75CB"/>
<path d="M514.227 316.316C514.227 316.316 511.035 313.83 508.022 314.422C505.006 315.014 503.529 317.084 503.647 318.029C503.765 318.975 505.362 321.637 507.666 321.875C509.973 322.111 516.531 320.456 516.531 320.456L514.227 316.316Z" fill="#E49963"/>
<path d="M520.623 264.687C520.623 264.687 532.913 265.444 537.167 271.382C543.156 279.741 553.557 313.873 550.721 321.679L513.331 321.522C513.331 321.522 512.425 317.284 513.684 315.233C514.945 313.183 535.432 309.87 536.38 308.925C537.324 307.977 524.561 290.47 524.561 287.632C524.558 284.79 520.623 264.687 520.623 264.687Z" fill="#699DEE"/>
<path d="M502.784 304.543H457.586L465.747 333.025H511.013L502.784 304.543Z" fill="#1C468A"/>
<path d="M525.084 331.914H465.906V333.025H525.084V331.914Z" fill="#163560"/>
<path d="M483.744 318.321C483.458 317.319 482.413 316.509 481.412 316.509C480.411 316.509 479.834 317.319 480.12 318.321C480.406 319.322 481.451 320.133 482.452 320.133C483.452 320.135 484.03 319.322 483.744 318.321Z" fill="#163560"/>
<path d="M335.636 385.084V397.154C335.636 399.645 333.598 401.684 331.109 401.684H259.808C257.316 401.684 255.281 399.645 255.281 397.154V385.084C255.281 382.593 257.319 380.554 259.808 380.554H331.109C333.598 380.551 335.636 382.59 335.636 385.084Z" fill="#F99746"/>
<path d="M335.636 394.957V397.154C335.636 399.645 333.598 401.684 331.109 401.684H259.808C257.316 401.684 255.281 399.645 255.281 397.154V394.775H334.338C334.786 394.775 335.224 394.84 335.636 394.957Z" fill="#ED7D2B"/>
<path d="M272.444 401.684L269.23 413.869C269.23 413.869 269.23 413.869 269.227 413.871L255.844 464.584H254.438L262.17 422.511C262.178 422.469 262.19 422.427 262.195 422.382L266.021 401.574L272.444 401.684Z" fill="#E8C6A7"/>
<path d="M272.45 401.684L269.235 413.869C269.235 413.869 269.235 413.869 269.232 413.871C269.047 413.961 263.195 416.991 262.203 422.382L266.029 401.574L272.45 401.684Z" fill="#C69D7B"/>
<path d="M335.637 464.587H334.23L323.328 423.277C323.328 423.274 323.328 423.274 323.328 423.268L320.85 413.874C320.847 413.872 320.847 413.872 320.847 413.872L317.633 401.687L324.054 401.577L326.243 413.473L327.879 422.385C327.888 422.43 327.899 422.472 327.904 422.514L335.637 464.587Z" fill="#E8C6A7"/>
<path d="M313.9 417.642C313.892 417.645 313.886 417.642 313.878 417.628C313.847 417.575 313.855 417.586 313.9 417.642Z" fill="#E8C6A7"/>
<path d="M326.24 413.473C325.054 415.198 323.42 418.441 323.328 423.268L320.85 413.874C320.847 413.872 320.847 413.872 320.847 413.872L317.633 401.687L324.054 401.577L326.24 413.473Z" fill="#C69D7B"/>
<path d="M245.494 142.897C247.151 141.169 248.277 141.817 248.277 141.817C248.277 141.817 267.845 156.855 269.712 157.949C271.578 159.043 297.029 159.781 297.029 159.781C297.029 159.781 307.222 159.666 309.697 164.903C311.847 169.455 310.33 173.374 308.111 176.252C305.468 179.682 300.97 181.11 296.816 179.896C287.486 177.172 268.93 171.61 265.457 169.483C257.731 164.751 243.773 145.862 243.773 145.862C243.773 145.862 244.191 144.255 245.494 142.897Z" fill="#599DAD"/>
<path d="M266.591 128.288L256.821 122.398C256.011 121.899 255.551 120.99 255.627 120.044C255.725 118.835 255.775 117.615 255.775 116.381C255.775 114.089 255.613 111.848 255.265 109.666C255.103 108.645 255.565 107.635 256.448 107.113L266.655 100.948C267.751 100.3 268.16 98.9057 267.588 97.7472L262.785 87.9548C262.235 86.8468 260.954 86.3363 259.797 86.7458L249.48 90.4962C248.486 90.8833 247.353 90.5467 246.681 89.6743C243.842 85.9997 240.42 82.7851 236.549 80.1568C235.616 79.5229 235.229 78.2999 235.616 77.2424L237.906 70.9647C238.329 69.7698 237.805 68.4234 236.661 67.8511L226.942 63.0938C226.743 62.9928 226.544 62.9199 226.331 62.8834C225.336 62.673 224.276 63.119 223.741 64.0307L219.335 71.3294L218.265 73.1106C216.261 72.8245 214.195 72.6758 212.116 72.6758C209.316 72.6758 206.564 72.9367 203.926 73.4359C202.917 73.6239 201.897 73.1863 201.376 72.3027L196.421 64.0699C195.737 62.9479 194.319 62.5244 193.147 63.1106L185.667 66.7852L183.526 67.8455C182.357 68.4177 181.797 69.7894 182.245 71.0096L185.37 79.6435C185.743 80.6393 185.446 81.7613 184.625 82.4093C182.198 84.3896 179.983 86.6196 178.041 89.06C177.853 89.2591 177.705 89.4583 177.542 89.6715C177.492 89.7472 177.43 89.8089 177.369 89.8706C176.685 90.6056 175.625 90.8412 174.681 90.4934L164.488 86.7935C164.376 86.743 164.252 86.7178 164.14 86.6925C163.044 86.4681 161.901 87.0151 161.391 88.0389L156.637 97.7303C156.066 98.9 156.475 100.308 157.596 100.995L167.789 107.136C168.661 107.646 169.109 108.642 168.947 109.641C168.61 111.834 168.437 114.086 168.437 116.392C168.437 117.612 168.487 118.821 168.585 120.016C168.661 120.987 168.187 121.921 167.352 122.42L157.543 128.35C156.461 128.998 156.049 130.381 156.609 131.525L161.377 141.206C161.948 142.375 163.305 142.936 164.552 142.487L172.716 139.523C173.812 139.124 175.02 139.523 175.665 140.482C178.167 144.28 181.253 147.657 184.787 150.51C185.634 151.169 185.956 152.316 185.583 153.337L182.248 162.529C181.8 163.764 182.36 165.132 183.529 165.719L193.175 170.465C194.333 171.037 195.74 170.614 196.387 169.52L196.648 169.096L201.763 160.614C202.309 159.705 203.343 159.245 204.389 159.43H204.4C206.903 159.879 209.478 160.114 212.116 160.114C213.523 160.114 214.904 160.039 216.286 159.915C217.245 159.817 218.164 160.277 218.663 161.099L223.691 169.458C224.374 170.605 225.832 171.026 227.015 170.442L236.647 165.696C236.922 165.559 237.157 165.371 237.356 165.172C237.992 164.499 238.228 163.489 237.903 162.58L235.386 155.68C235.086 154.832 235.263 153.884 235.82 153.214C235.969 153.04 236.146 152.877 236.345 152.74C241.199 149.5 245.344 145.329 248.567 140.457C249.102 139.621 250.097 139.222 251.056 139.385C251.193 139.41 251.33 139.447 251.465 139.497L259.716 142.499C260.91 142.933 262.241 142.398 262.815 141.253L262.928 141.029L267.569 131.587C268.146 130.392 267.723 128.973 266.591 128.288ZM189.459 109.663C189.933 107.98 190.58 106.274 191.424 104.569C193.041 101.318 197.038 97.2928 200.297 95.6883C200.645 95.5144 200.995 95.3517 201.342 95.189C222.676 85.5986 243.247 106.563 232.906 127.927C231.549 130.718 228.55 133.994 225.624 136.025C224.941 136.485 224.268 136.897 223.635 137.194C220.661 138.639 217.699 139.486 214.809 139.811C198.36 141.64 184.818 126.507 189.459 109.663Z" fill="#F99746"/>
<path d="M223.873 147.822C223.873 147.822 223.902 140.591 222.761 138.487C221.62 136.383 219.005 133.755 217.517 134.597C216.029 135.438 215.572 142.484 216.029 143.747C216.486 145.009 219.869 149.741 219.869 149.741L223.873 147.822Z" fill="#FFB27D"/>
<path d="M313.448 380.55C315.059 379.17 314.093 371.442 314.093 371.442C314.093 371.442 305.8 364.8 304.659 369.886C303.518 374.971 296.778 377.254 292.944 377.877C290.385 378.292 289.536 379.675 289.25 380.553H313.448V380.55Z" fill="#2C3A64"/>
<path d="M314.379 371.801C306.699 372.994 303.891 371.165 303.891 371.165C303.989 363.594 301.657 346.525 298.46 326.929C294.244 301.089 288.527 270.851 284.914 252.209C282.838 241.488 281.453 234.602 281.453 234.602L287.728 234.478L319.028 233.858C319.028 233.858 316.685 268.531 317.327 285.653C317.481 289.74 317.806 292.831 318.372 294.209C323.708 307.185 314.379 371.801 314.379 371.801Z" fill="#35488B"/>
<path d="M317.319 285.656C313.067 293.62 302.414 314.133 298.451 326.929C294.236 301.089 288.519 270.851 284.906 252.209C285.086 245.163 285.926 239.006 287.72 234.478L319.02 233.858C319.02 233.861 316.68 268.531 317.319 285.656Z" fill="#2C3A64"/>
<path d="M287.089 380.55C288.7 379.17 287.733 371.442 287.733 371.442C287.733 371.442 279.44 364.8 278.3 369.886C277.159 374.971 270.421 377.254 266.585 377.877C264.026 378.292 263.174 379.675 262.891 380.553H287.089V380.55Z" fill="#2C3A64"/>
<path d="M267.844 233.851C267.844 233.851 280.142 347.721 277.703 370.686C277.703 370.686 280.332 372.745 288.087 372.273C288.087 372.273 302.134 306.675 299.158 296.058C297.089 288.678 305.329 236.552 305.329 236.552L267.844 233.851Z" fill="#35488B"/>
<path d="M298.11 152.42C298.11 152.42 282.474 160.235 274.719 156.672C274.719 156.672 277.978 152.451 281.627 150.698C281.549 149.306 281.504 148.05 281.482 146.936C281.411 143.234 281.599 141.149 281.599 141.149L288.342 136.241L292.916 132.908C292.656 134.97 292.614 136.875 292.731 138.622C293.334 147.629 298.11 152.42 298.11 152.42Z" fill="#FFB27D"/>
<path d="M292.731 138.622C292.731 138.622 289.085 145.898 281.484 146.936C281.414 143.233 281.602 141.149 281.602 141.149L288.345 136.24C291.291 137.348 292.731 138.622 292.731 138.622Z" fill="#ED975D"/>
<path d="M279.864 140.678C279.864 140.678 293.86 145.665 296.828 136.897C299.799 128.125 303.605 122.863 294.793 119.306C285.982 115.75 283.103 118.507 281.402 121.191C279.698 123.876 276.299 139.155 279.864 140.678Z" fill="#FFB27D"/>
<path d="M320.021 233.85C317.829 238.419 269.327 238.215 266.93 234.995C265.955 233.685 264.84 220.582 264.198 205.345C263.845 196.905 263.637 187.811 263.677 179.707C263.749 166.484 264.489 155.898 266.35 155.09C276.745 150.577 283.172 147.705 296.751 148.12C300.938 148.249 304.727 150.67 306.551 154.442C309.814 161.2 314.444 173.172 314.797 187.315C315.346 209.107 322.779 228.094 320.021 233.85Z" fill="#6BB7BF"/>
<path d="M279.369 170.735C279.369 170.735 277.791 193.523 264.198 205.349C263.845 196.908 263.637 187.814 263.677 179.711C267.738 174.275 273.096 170.361 279.369 170.735Z" fill="#599DAD"/>
<path d="M286.053 148.605C286.053 148.605 271.137 148.697 266.454 153.048C263.099 156.167 241.544 173.171 240.174 172.941C238.803 172.711 224.927 144.986 224.927 144.986C224.927 144.986 218.086 145.567 216.945 148.532C216.945 148.532 223.397 183.152 237.32 190.678C237.32 190.678 272.519 183.996 282.961 172.344C288.34 166.344 286.053 148.605 286.053 148.605Z" fill="#6BB7BF"/>
<path d="M280.478 114.347C280.478 114.347 281.304 122.715 283.816 124.998C286.327 127.281 285.662 130.426 285.937 130.883C286.212 131.34 288.81 129.997 289.267 130.765C290.318 132.535 288.675 133.826 287.636 134.255C286.599 134.684 290.287 141.865 292.994 142.131C297.677 142.588 304.914 129.626 305.525 125.826C306.324 120.858 303.512 113.108 295.452 113.489C282.79 114.089 280.223 111.34 280.478 114.347Z" fill="#2B478B"/>
<path d="M658.522 77.708H643.57V170.936H658.522V77.708Z" fill="#AFCDFB"/>
<path d="M683.694 51.7227H668.742V170.937H683.694V51.7227Z" fill="#AFCDFB"/>
<path d="M710.421 100.255H695.469V170.939H710.421V100.255Z" fill="#AFCDFB"/>
<path d="M682.877 33.8965H670.215C669.495 33.8965 668.906 34.4855 668.906 35.2064C668.906 35.9273 669.495 36.5164 670.215 36.5164H682.877C683.598 36.5164 684.186 35.9273 684.186 35.2064C684.186 34.4855 683.598 33.8965 682.877 33.8965Z" fill="#AFCDFB"/>
<path d="M673.091 41.2879C673.811 41.2879 674.4 40.6988 674.4 39.9779C674.4 39.257 673.811 38.668 673.091 38.668H670.207C669.487 38.668 668.898 39.257 668.898 39.9779C668.898 40.6988 669.487 41.2879 670.207 41.2879H673.091Z" fill="#AFCDFB"/>
<path d="M709.284 86.3398H696.621C695.901 86.3398 695.312 86.9289 695.312 87.6498C695.312 88.3707 695.901 88.9626 696.621 88.9626H709.284C710.004 88.9626 710.592 88.3735 710.592 87.6498C710.592 86.9317 710.004 86.3398 709.284 86.3398Z" fill="#AFCDFB"/>
<path d="M696.621 93.7332H699.505C700.226 93.7332 700.814 93.1441 700.814 92.4232C700.814 91.7023 700.226 91.1133 699.505 91.1133H696.621C695.901 91.1133 695.312 91.7023 695.312 92.4232C695.312 93.1441 695.901 93.7332 696.621 93.7332Z" fill="#AFCDFB"/>
</svg>
