<svg width="334" height="334" viewBox="0 0 334 334" fill="none" xmlns="http://www.w3.org/2000/svg">
<path d="M317.747 216.735C285.742 291.541 201.262 323.672 135.07 318.194C116.997 316.698 80.6336 313.688 52.2409 286.838C-2.28573 235.275 6.11198 127.491 58.3096 64.0343C65.0319 55.8626 111.56 1.1109 184.066 1.84371C237.151 2.38028 274.41 32.3674 278.94 36.1035C284.663 40.8227 297.287 52.0373 308.665 69.8285C335.396 111.632 337.746 169.989 317.747 216.735Z" fill="url(#paint0_linear_2_10007)"/>
<g opacity="0.3">
<path d="M227.234 61.9286C226.609 61.9286 226.073 61.4569 226.007 60.8222C225.861 59.4349 225.774 58.0197 225.747 56.617C225.735 55.9346 226.277 55.3711 226.959 55.3585C226.967 55.3585 226.975 55.3585 226.983 55.3585C227.655 55.3585 228.205 55.8959 228.218 56.5702C228.243 57.9026 228.326 59.2467 228.464 60.5647C228.535 61.2435 228.043 61.8512 227.364 61.9223C227.32 61.9268 227.277 61.9286 227.234 61.9286ZM227.314 51.1668C227.265 51.1668 227.217 51.1641 227.167 51.1578C226.49 51.0777 226.005 50.4637 226.085 49.7858C226.25 48.394 226.476 46.9959 226.756 45.6302C226.894 44.9622 227.544 44.5327 228.215 44.6687C228.883 44.8064 229.313 45.4591 229.176 46.1271C228.91 47.4253 228.695 48.7541 228.539 50.0766C228.464 50.7059 227.931 51.1668 227.314 51.1668ZM229.761 40.6913C229.623 40.6913 229.483 40.6679 229.347 40.6193C228.704 40.3897 228.369 39.6839 228.598 39.0411C229.067 37.724 229.599 36.4105 230.18 35.1375C230.464 34.5172 231.197 34.2444 231.817 34.5262C232.437 34.8098 232.711 35.5426 232.428 36.1629C231.876 37.372 231.371 38.6189 230.926 39.8693C230.745 40.3753 230.268 40.6913 229.761 40.6913ZM234.49 31.0233C234.263 31.0233 234.032 30.9603 233.827 30.8297C233.252 30.4633 233.084 29.699 233.45 29.1237C234.203 27.9444 235.016 26.7821 235.865 25.6721C236.28 25.131 237.055 25.0275 237.598 25.4416C238.139 25.8557 238.242 26.6318 237.828 27.1737C237.02 28.2288 236.249 29.3317 235.534 30.4525C235.297 30.8216 234.898 31.0233 234.49 31.0233ZM241.256 22.6535C240.938 22.6535 240.619 22.531 240.378 22.2862C239.898 21.8009 239.903 21.0186 240.388 20.5396C241.381 19.5583 242.431 18.6059 243.507 17.7101C244.031 17.2726 244.81 17.3437 245.246 17.8676C245.683 18.3916 245.613 19.1703 245.088 19.6079C244.065 20.4604 243.068 21.3652 242.124 22.2979C241.884 22.5346 241.57 22.6535 241.256 22.6535ZM249.705 15.9888C249.292 15.9888 248.889 15.7826 248.655 15.4063C248.295 14.8265 248.472 14.0658 249.052 13.7048C250.239 12.9666 251.473 12.2698 252.719 11.6351C253.328 11.3254 254.071 11.5667 254.381 12.1752C254.691 12.7829 254.45 13.5265 253.841 13.8362C252.657 14.4394 251.485 15.1011 250.356 15.8033C250.153 15.9285 249.928 15.9888 249.705 15.9888ZM294.97 13.0476C294.799 13.0476 294.625 13.0116 294.459 12.9369C293.251 12.3877 292.003 11.8845 290.749 11.4397C290.106 11.2119 289.769 10.5061 289.997 9.86335C290.225 9.22055 290.93 8.88295 291.573 9.11072C292.894 9.57796 294.209 10.1082 295.481 10.6871C296.102 10.9698 296.377 11.7017 296.094 12.3229C295.888 12.7784 295.439 13.0476 294.97 13.0476ZM259.414 11.365C258.902 11.365 258.423 11.0436 258.246 10.5322C258.024 9.88675 258.366 9.18364 259.011 8.96128C260.333 8.50574 261.691 8.10152 263.047 7.76032C263.71 7.59737 264.381 7.99529 264.546 8.65699C264.713 9.31868 264.31 9.98938 263.649 10.1559C262.36 10.4791 261.071 10.8626 259.816 11.2957C259.683 11.3425 259.548 11.365 259.414 11.365ZM284.734 9.72831C284.652 9.72831 284.57 9.7202 284.486 9.704C283.185 9.43932 281.855 9.22686 280.533 9.07381C279.855 8.99459 279.37 8.3815 279.449 7.7036C279.528 7.0257 280.142 6.53775 280.819 6.61968C282.21 6.78172 283.609 7.00499 284.979 7.28317C285.648 7.41911 286.079 8.07181 285.943 8.73981C285.824 9.32499 285.308 9.72831 284.734 9.72831ZM269.913 9.0261C269.29 9.0261 268.753 8.55525 268.686 7.92237C268.614 7.24356 269.104 6.63588 269.783 6.56296C271.172 6.41441 272.587 6.32439 273.986 6.29558C273.995 6.29468 274.004 6.29468 274.012 6.29468C274.681 6.29468 275.232 6.83034 275.246 7.50374C275.26 8.18614 274.719 8.75061 274.037 8.76502C272.707 8.79293 271.364 8.87845 270.044 9.01979C270.001 9.0234 269.957 9.0261 269.913 9.0261Z" fill="#91B3FA"/>
<path d="M302.51 17.3357C302.267 17.3357 302.021 17.2646 301.806 17.1151C301.283 16.7514 300.743 16.3931 300.203 16.0483C299.628 15.6819 299.458 14.9185 299.825 14.3432C300.191 13.7679 300.956 13.5969 301.53 13.9651C302.099 14.327 302.665 14.7042 303.216 15.0868C303.776 15.4766 303.915 16.2463 303.525 16.8063C303.285 17.1511 302.9 17.3357 302.51 17.3357Z" fill="#91B3FA"/>
</g>
<g opacity="0.3">
<path d="M322.577 49.2041C321.981 49.2041 321.457 48.772 321.359 48.1643C321.259 47.536 321.143 46.8986 321.015 46.2702C320.88 45.6013 321.312 44.9495 321.981 44.8135C322.652 44.6776 323.301 45.1106 323.437 45.7786C323.571 46.4394 323.693 47.111 323.799 47.7727C323.907 48.4461 323.448 49.0799 322.775 49.1879C322.708 49.1996 322.642 49.2041 322.577 49.2041Z" fill="#91B3FA"/>
<path d="M275.127 104.962C274.559 104.962 273.988 104.952 273.416 104.933C272.734 104.91 272.199 104.339 272.223 103.657C272.246 102.974 272.821 102.439 273.498 102.463C274.82 102.507 276.14 102.498 277.437 102.434C278.12 102.402 278.698 102.926 278.732 103.607C278.765 104.289 278.24 104.869 277.559 104.902C276.756 104.942 275.938 104.962 275.127 104.962ZM266.927 104.268C266.858 104.268 266.788 104.263 266.718 104.25C265.359 104.018 263.995 103.725 262.665 103.381C262.005 103.21 261.608 102.537 261.778 101.876C261.949 101.215 262.624 100.817 263.283 100.989C264.547 101.316 265.843 101.594 267.134 101.815C267.806 101.93 268.258 102.568 268.143 103.24C268.041 103.843 267.519 104.268 266.927 104.268ZM284.014 104.134C283.431 104.134 282.913 103.721 282.801 103.128C282.675 102.457 283.116 101.811 283.787 101.684C285.07 101.443 286.359 101.143 287.62 100.793C288.278 100.611 288.959 100.996 289.141 101.653C289.323 102.311 288.938 102.992 288.281 103.173C286.953 103.542 285.594 103.858 284.244 104.112C284.166 104.128 284.089 104.134 284.014 104.134ZM256.747 101.345C256.59 101.345 256.431 101.314 256.277 101.251C255.004 100.727 253.738 100.141 252.514 99.512C251.907 99.1997 251.669 98.4551 251.981 97.8484C252.293 97.2416 253.038 97.0021 253.645 97.3154C254.807 97.9132 256.009 98.4686 257.218 98.9674C257.849 99.2267 258.15 99.9496 257.89 100.58C257.693 101.056 257.232 101.345 256.747 101.345ZM294.133 101.036C293.655 101.036 293.201 100.757 292.999 100.291C292.728 99.6642 293.017 98.9377 293.643 98.6667C294.84 98.149 296.032 97.5729 297.186 96.9544C297.788 96.6321 298.537 96.8581 298.859 97.4594C299.181 98.0608 298.955 98.8089 298.354 99.1312C297.14 99.783 295.885 100.389 294.623 100.934C294.463 101.004 294.296 101.036 294.133 101.036ZM303.329 95.793C302.947 95.793 302.57 95.6166 302.329 95.2844C301.928 94.7325 302.05 93.9601 302.602 93.5586C303.661 92.7897 304.699 91.9669 305.688 91.1134C306.204 90.6669 306.984 90.7245 307.43 91.2422C307.876 91.7589 307.818 92.5386 307.302 92.9842C306.26 93.8818 305.168 94.7478 304.054 95.5572C303.835 95.7165 303.58 95.793 303.329 95.793ZM311.162 88.6692C310.871 88.6692 310.581 88.5675 310.346 88.3595C309.834 87.9085 309.786 87.1279 310.237 86.6157C311.104 85.6335 311.938 84.6054 312.717 83.5566C313.124 83.0092 313.897 82.8949 314.445 83.3027C314.993 83.7096 315.106 84.4839 314.699 85.0312C313.879 86.134 313 87.2171 312.089 88.2497C311.845 88.5279 311.504 88.6692 311.162 88.6692ZM317.255 80.0077C317.053 80.0077 316.85 79.9582 316.661 79.8547C316.063 79.5261 315.845 78.7752 316.174 78.1775C316.804 77.0305 317.393 75.844 317.923 74.6502C318.2 74.0272 318.931 73.7463 319.554 74.0227C320.177 74.3 320.458 75.0301 320.181 75.6531C319.623 76.9108 319.003 78.1604 318.339 79.3676C318.114 79.7763 317.691 80.0077 317.255 80.0077ZM321.3 70.2164C321.187 70.2164 321.071 70.2002 320.958 70.1678C320.303 69.9787 319.924 69.2945 320.113 68.6391C320.474 67.3841 320.786 66.0985 321.041 64.8148C321.174 64.1459 321.826 63.7119 322.493 63.8443C323.162 63.9766 323.597 64.6275 323.464 65.2964C323.196 66.6477 322.867 68.0017 322.487 69.3224C322.33 69.8635 321.837 70.2164 321.3 70.2164ZM323.092 59.7823C323.067 59.7823 323.041 59.7814 323.016 59.7796C322.335 59.7381 321.817 59.1521 321.858 58.4715C321.917 57.51 321.946 56.5359 321.946 55.5744C321.946 55.2269 321.942 54.8794 321.935 54.5328C321.92 53.8504 322.461 53.2859 323.143 53.2706C323.833 53.2418 324.39 53.7964 324.405 54.4788C324.413 54.8434 324.417 55.208 324.417 55.5744C324.417 56.5854 324.385 57.6108 324.324 58.6218C324.284 59.2772 323.741 59.7823 323.092 59.7823Z" fill="#91B3FA"/>
<path d="M247.436 96.2333C247.19 96.2333 246.942 96.1604 246.726 96.0092C246.179 95.6248 245.63 95.2214 245.093 94.81C244.551 94.395 244.448 93.6199 244.863 93.0779C245.279 92.5368 246.054 92.4333 246.596 92.8483C247.105 93.239 247.627 93.6217 248.147 93.9872C248.705 94.3788 248.839 95.1494 248.447 95.7076C248.207 96.0506 247.824 96.2333 247.436 96.2333Z" fill="#91B3FA"/>
</g>
<path d="M249.103 81.9056C249.259 82.0964 249.518 82.1676 249.749 82.082L256.345 79.6567C258.945 81.6589 261.882 83.2614 265.076 84.3588L266.685 91.1946C266.742 91.434 266.944 91.6123 267.189 91.6366L275.575 92.4864C275.82 92.5107 276.054 92.3775 276.158 92.1543L279.104 85.7803C282.453 85.3455 285.653 84.3651 288.601 82.9247L294.576 86.623C294.786 86.7526 295.054 86.7355 295.245 86.5798L301.776 81.2511C301.967 81.0953 302.038 80.8352 301.952 80.6047L299.527 74.0093C301.529 71.4093 303.132 68.4718 304.229 65.2776L311.065 63.6688C311.304 63.6121 311.482 63.4104 311.507 63.1647L312.357 54.7787C312.382 54.5338 312.248 54.2997 312.025 54.1962L305.651 51.2496C305.216 47.9006 304.235 44.701 302.795 41.7527L306.493 35.7776C306.623 35.5687 306.605 35.2995 306.45 35.1087L301.121 28.5781C300.966 28.3873 300.706 28.3161 300.475 28.4017L293.88 30.827C291.28 28.8248 288.342 27.2223 285.148 26.1249L283.539 19.2891C283.482 19.0497 283.281 18.8723 283.035 18.8471L274.649 17.9981C274.404 17.9729 274.17 18.1071 274.066 18.3303L271.12 24.7043C267.771 25.1391 264.571 26.1195 261.623 27.5599L255.648 23.8616C255.438 23.732 255.17 23.7491 254.979 23.9048L248.448 29.2335C248.258 29.3893 248.186 29.6485 248.272 29.8799L250.697 36.4753C248.695 39.0753 247.093 42.0128 245.995 45.207L239.159 46.8158C238.92 46.8725 238.742 47.0741 238.717 47.3199L237.868 55.705C237.842 55.9499 237.976 56.184 238.2 56.2875L244.574 59.2341C245.008 62.5831 245.989 65.7827 247.429 68.731L243.731 74.7061C243.601 74.9159 243.618 75.1842 243.774 75.375L249.103 81.9056Z" fill="#91B3FA"/>
<path d="M275.104 63.7164C270.975 63.7164 267.348 60.6834 266.728 56.4791C266.047 51.8572 269.253 47.5431 273.875 46.8625C276.114 46.5321 278.347 47.0938 280.163 48.4433C281.98 49.7928 283.162 51.7689 283.491 54.0079C284.173 58.6299 280.967 62.944 276.345 63.6246C275.929 63.6858 275.514 63.7164 275.104 63.7164ZM275.124 48.7458C274.806 48.7458 274.485 48.7692 274.164 48.816C270.62 49.3382 268.162 52.6467 268.685 56.1893C269.207 59.7327 272.513 62.1923 276.058 61.6692C279.601 61.147 282.059 57.8385 281.537 54.296C281.284 52.5792 280.377 51.064 278.985 50.0287C277.853 49.1879 276.509 48.7458 275.124 48.7458Z" fill="#BDD0FB"/>
<path d="M275.278 75.953C274.569 75.953 273.856 75.917 273.14 75.845C272.915 75.8225 272.69 75.7955 272.466 75.7658C271.359 75.6172 270.267 75.3814 269.205 75.0618C269.191 75.0573 269.176 75.0528 269.162 75.0492C269.12 75.0366 269.08 75.0239 269.039 75.0113C268.958 74.987 268.879 74.9609 268.8 74.9357C268.591 74.8682 268.458 74.6746 268.458 74.4658C268.458 74.4154 268.466 74.3632 268.482 74.3127C268.566 74.0535 268.845 73.9121 269.104 73.9949C270.44 74.428 271.831 74.7197 273.24 74.8619C280.236 75.5713 286.763 72.5374 290.829 67.3897C293.09 64.5268 294.589 61.0095 294.983 57.1185C295.053 56.4361 295.087 55.7555 295.087 55.0785C295.086 50.5258 293.533 46.1478 290.615 42.5728C287.265 38.4658 282.515 35.9099 277.241 35.3761C266.35 34.2741 256.6 42.2334 255.499 53.1186C255.43 53.7902 255.397 54.4618 255.397 55.1325C255.398 58.0368 256.033 60.9086 257.269 63.5401C257.301 63.6085 257.316 63.6797 257.316 63.7499C257.316 63.9353 257.211 64.1136 257.033 64.1973C256.785 64.3125 256.492 64.2081 256.375 63.9596C255.078 61.1976 254.41 58.1817 254.409 55.1325C254.409 54.4294 254.444 53.7236 254.515 53.0187C255.673 41.5897 265.916 33.2343 277.341 34.3921C282.878 34.953 287.863 37.6358 291.381 41.9471C294.444 45.7004 296.075 50.2962 296.076 55.0758C296.076 55.7861 296.04 56.5009 295.968 57.2166C295.407 62.7533 292.725 67.7399 288.413 71.2572C284.656 74.3226 280.059 75.953 275.278 75.953Z" fill="#BDD0FB"/>
<g opacity="0.3">
<path d="M185.08 94.4815C184.75 94.4815 184.447 94.2663 184.348 93.9332C184.166 93.312 184 92.6764 183.855 92.0445C183.761 91.6339 184.017 91.2252 184.428 91.1298C184.838 91.0334 185.248 91.2918 185.342 91.7023C185.48 92.3046 185.638 92.9105 185.813 93.5029C185.932 93.9071 185.701 94.3302 185.296 94.45C185.223 94.4716 185.151 94.4815 185.08 94.4815Z" fill="#91B3FA"/>
<path d="M183.951 88.7216C183.565 88.7216 183.233 88.429 183.193 88.0365C183.08 86.9274 183.022 85.7993 183.022 84.6848C183.022 84.4498 183.025 84.2148 183.029 83.9781C183.038 83.5567 183.409 83.2381 183.808 83.2308C184.229 83.2399 184.563 83.5883 184.555 84.0096C184.551 84.2355 184.548 84.4606 184.548 84.6848C184.548 85.748 184.603 86.8238 184.71 87.8816C184.753 88.3012 184.448 88.6748 184.029 88.718C184.003 88.7207 183.977 88.7216 183.951 88.7216ZM184.119 80.8019C184.083 80.8019 184.046 80.8001 184.009 80.7947C183.592 80.7344 183.302 80.3473 183.363 79.9305C183.555 78.5927 183.832 77.254 184.186 75.954C184.297 75.547 184.718 75.3085 185.123 75.4183C185.529 75.529 185.769 75.9477 185.658 76.3546C185.321 77.5952 185.056 78.8717 184.872 80.1474C184.817 80.5282 184.491 80.8019 184.119 80.8019ZM186.202 73.1595C186.105 73.1595 186.007 73.1406 185.912 73.1019C185.522 72.9417 185.337 72.4951 185.497 72.1053C186.011 70.8575 186.609 69.6269 187.274 68.4511C187.482 68.0838 187.946 67.9551 188.314 68.163C188.68 68.3701 188.81 68.8355 188.603 69.2019C187.968 70.3237 187.398 71.4958 186.909 72.6869C186.786 72.9813 186.502 73.1595 186.202 73.1595ZM190.1 66.2617C189.942 66.2617 189.783 66.2121 189.646 66.1122C189.308 65.861 189.237 65.383 189.488 65.0445C190.294 63.9579 191.173 62.9127 192.104 61.9368C192.395 61.6325 192.878 61.6217 193.183 61.9116C193.488 62.2024 193.5 62.6849 193.209 62.9901C192.322 63.9201 191.482 64.9176 190.714 65.9529C190.564 66.1554 190.334 66.2617 190.1 66.2617ZM195.565 60.5269C195.344 60.5269 195.125 60.4315 194.974 60.2479C194.707 59.922 194.755 59.4421 195.08 59.1738C196.125 58.3177 197.232 57.5173 198.372 56.7962C198.728 56.5694 199.199 56.6765 199.424 57.0321C199.649 57.3886 199.544 57.8594 199.188 58.0845C198.102 58.7732 197.045 59.5358 196.049 60.3532C195.907 60.4702 195.735 60.5269 195.565 60.5269ZM202.256 56.2921C201.97 56.2921 201.696 56.13 201.565 55.8545C201.385 55.4737 201.548 55.0191 201.929 54.839C203.15 54.262 204.419 53.756 205.7 53.3365C206.102 53.206 206.532 53.4238 206.663 53.8235C206.795 54.2233 206.577 54.6554 206.176 54.7859C204.955 55.1865 203.746 55.6691 202.581 56.2183C202.475 56.2687 202.365 56.2921 202.256 56.2921ZM209.776 53.8217C209.418 53.8217 209.099 53.5688 209.027 53.206C208.946 52.7927 209.216 52.3912 209.63 52.3102C210.95 52.0518 212.305 51.8727 213.656 51.7781C214.077 51.7556 214.441 52.0662 214.47 52.4866C214.499 52.9071 214.182 53.2717 213.762 53.3014C212.474 53.3905 211.182 53.5616 209.922 53.8082C209.874 53.8172 209.824 53.8217 209.776 53.8217ZM221.621 53.7245C221.577 53.7245 221.532 53.7209 221.487 53.7128C220.392 53.5184 219.267 53.3806 218.143 53.3032C217.972 53.2906 217.805 53.2798 217.638 53.2717C217.217 53.2492 216.894 52.8909 216.916 52.4704C216.938 52.0491 217.3 51.7133 217.718 51.7475C217.896 51.7574 218.073 51.7673 218.252 51.7808C219.426 51.8619 220.605 52.0068 221.754 52.2112C222.169 52.285 222.445 52.6802 222.371 53.0952C222.306 53.4652 221.984 53.7245 221.621 53.7245Z" fill="#91B3FA"/>
</g>
<g opacity="0.3">
<path d="M216.423 117.603C216.006 117.603 215.666 117.268 215.661 116.85C215.655 116.428 215.992 116.083 216.413 116.077C217.682 116.061 218.96 115.966 220.212 115.798C220.627 115.746 221.014 116.034 221.07 116.453C221.127 116.87 220.834 117.255 220.416 117.311C219.102 117.487 217.763 117.586 216.433 117.603C216.43 117.603 216.427 117.603 216.423 117.603ZM212.524 117.419C212.496 117.419 212.469 117.417 212.441 117.414C211.121 117.273 209.795 117.049 208.502 116.751C208.091 116.655 207.835 116.246 207.93 115.836C208.024 115.425 208.437 115.171 208.845 115.263C210.079 115.549 211.344 115.762 212.604 115.897C213.023 115.942 213.326 116.318 213.281 116.737C213.24 117.129 212.908 117.419 212.524 117.419ZM224.143 116.56C223.804 116.56 223.496 116.333 223.406 115.991C223.298 115.584 223.542 115.167 223.949 115.06C225.176 114.737 226.394 114.336 227.569 113.869C227.963 113.715 228.405 113.905 228.56 114.296C228.715 114.687 228.524 115.132 228.132 115.288C226.9 115.777 225.623 116.197 224.336 116.535C224.273 116.552 224.208 116.56 224.143 116.56ZM204.931 115.659C204.845 115.659 204.757 115.643 204.67 115.613C203.421 115.157 202.188 114.621 201.005 114.016C200.63 113.824 200.481 113.365 200.673 112.989C200.865 112.616 201.324 112.466 201.699 112.657C202.827 113.233 204.003 113.745 205.193 114.179C205.589 114.324 205.793 114.762 205.649 115.158C205.535 115.467 205.243 115.659 204.931 115.659ZM231.382 113.682C231.112 113.682 230.85 113.538 230.712 113.285C230.51 112.915 230.646 112.451 231.016 112.249C232.127 111.643 233.212 110.962 234.242 110.225C234.585 109.979 235.061 110.058 235.307 110.401C235.552 110.744 235.474 111.22 235.131 111.466C234.05 112.238 232.912 112.953 231.747 113.59C231.63 113.652 231.505 113.682 231.382 113.682ZM237.718 109.151C237.511 109.151 237.306 109.067 237.155 108.903C236.871 108.592 236.892 108.11 237.202 107.825C238.138 106.967 239.03 106.046 239.853 105.087C240.127 104.766 240.609 104.73 240.928 105.004C241.248 105.278 241.285 105.759 241.011 106.079C240.149 107.085 239.213 108.051 238.233 108.951C238.087 109.085 237.903 109.151 237.718 109.151ZM242.788 103.232C242.643 103.232 242.496 103.192 242.365 103.104C242.014 102.871 241.92 102.398 242.153 102.047C242.857 100.991 243.501 99.8823 244.069 98.7515C244.258 98.3761 244.717 98.2231 245.093 98.4121C245.469 98.6012 245.622 99.0594 245.432 99.4366C244.837 100.621 244.161 101.785 243.424 102.892C243.276 103.113 243.034 103.232 242.788 103.232Z" fill="#91B3FA"/>
<path d="M197.959 112.097C197.812 112.097 197.662 112.055 197.532 111.966C196.991 111.6 196.459 111.216 195.949 110.826C195.615 110.569 195.551 110.09 195.808 109.756C196.064 109.423 196.542 109.359 196.877 109.615C197.364 109.988 197.871 110.353 198.387 110.703C198.736 110.938 198.827 111.414 198.591 111.762C198.444 111.979 198.203 112.097 197.959 112.097Z" fill="#91B3FA"/>
</g>
<path d="M198.593 102.241C198.698 102.369 198.871 102.416 199.026 102.359L203.439 100.736C205.179 102.075 207.145 103.147 209.282 103.882L210.359 108.456C210.397 108.617 210.532 108.735 210.696 108.753L216.307 109.321C216.471 109.337 216.627 109.248 216.697 109.098L218.668 104.833C220.909 104.542 223.05 103.886 225.023 102.921L229.021 105.396C229.162 105.483 229.341 105.471 229.469 105.367L233.839 101.802C233.967 101.697 234.014 101.523 233.957 101.368L232.334 96.9554C233.673 95.216 234.745 93.2499 235.48 91.1126L240.054 90.0359C240.215 89.9981 240.333 89.863 240.35 89.6992L240.919 84.0878C240.935 83.924 240.846 83.7673 240.696 83.698L236.431 81.7264C236.14 79.4856 235.484 77.3448 234.519 75.3714L236.994 71.3733C237.081 71.2329 237.069 71.0537 236.965 70.9259L233.4 66.556C233.295 66.4281 233.121 66.3804 232.966 66.438L228.553 68.0612C226.814 66.7216 224.848 65.6494 222.711 64.9148L221.634 60.3405C221.596 60.1803 221.461 60.0614 221.297 60.0443L215.686 59.4763C215.522 59.4601 215.365 59.5492 215.296 59.6986L213.324 63.9641C211.084 64.2549 208.943 64.9112 206.969 65.8754L202.971 63.4005C202.831 63.3141 202.652 63.3258 202.524 63.4293L198.154 66.9953C198.026 67.0997 197.978 67.2735 198.036 67.4283L199.659 71.8415C198.32 73.5808 197.247 75.547 196.513 77.6842L191.938 78.7609C191.778 78.7987 191.659 78.9338 191.643 79.0976L191.075 84.709C191.059 84.8729 191.148 85.0295 191.297 85.0988L195.563 87.0704C195.854 89.3112 196.51 91.452 197.473 93.4254L194.999 97.4235C194.912 97.564 194.924 97.7431 195.027 97.8709L198.593 102.241Z" fill="#91B3FA"/>
<path d="M215.984 90.1709C214.753 90.1709 213.559 89.7783 212.554 89.0311C211.317 88.1119 210.512 86.7651 210.287 85.2401C209.822 82.0927 212.006 79.1543 215.155 78.6897C218.307 78.2306 221.242 80.4101 221.706 83.5575C221.931 85.0825 221.548 86.604 220.629 87.841C219.71 89.0788 218.363 89.8837 216.838 90.1078C216.552 90.1502 216.267 90.1709 215.984 90.1709ZM215.999 80.1536C215.794 80.1536 215.587 80.1689 215.377 80.1995C213.062 80.5416 211.455 82.7031 211.797 85.0186C211.962 86.1404 212.554 87.1307 213.464 87.8068C214.374 88.4829 215.493 88.7637 216.615 88.5999C217.737 88.4342 218.727 87.8419 219.403 86.9326C220.079 86.0224 220.361 84.9034 220.195 83.7808C219.886 81.6732 218.068 80.1536 215.999 80.1536Z" fill="#BDD0FB"/>
<path d="M216.094 98.6884C215.611 98.6884 215.124 98.6641 214.634 98.6146C213.661 98.5165 212.696 98.3184 211.765 98.0267C211.724 98.0132 211.681 97.9997 211.64 97.9862C211.318 97.8818 211.112 97.5829 211.111 97.2615C211.111 97.1832 211.124 97.1039 211.149 97.0256C211.279 96.625 211.709 96.4071 212.11 96.535C212.977 96.8159 213.877 97.004 214.787 97.0958C214.837 97.1012 214.887 97.1057 214.937 97.1103C217.092 97.3074 219.215 96.9608 221.15 96.1263C222.201 95.6734 223.198 95.0756 224.113 94.3419C224.12 94.3356 224.128 94.3302 224.136 94.3239C224.158 94.305 224.182 94.287 224.203 94.269C226.862 92.0993 228.516 89.0249 228.862 85.6111C228.907 85.1691 228.929 84.7288 228.929 84.2904C228.929 81.3429 227.922 78.5089 226.033 76.1934C223.864 73.5349 220.788 71.8811 217.376 71.5354C213.964 71.1915 210.617 72.1944 207.959 74.3631C205.3 76.5328 203.646 79.6072 203.3 83.0219C203.256 83.4559 203.234 83.8916 203.234 84.3246C203.234 86.2053 203.646 88.0643 204.446 89.7676C204.495 89.873 204.519 89.9828 204.518 90.0917C204.518 90.378 204.356 90.6526 204.079 90.7823C203.698 90.9605 203.244 90.7976 203.064 90.4158C202.169 88.51 201.708 86.4294 201.707 84.3264C201.707 83.8403 201.732 83.3541 201.781 82.868C202.168 79.0481 204.019 75.6082 206.994 73.1811C209.968 70.754 213.707 69.6277 217.529 70.0175C221.348 70.4046 224.788 72.2547 227.216 75.2301C229.328 77.8193 230.454 80.99 230.455 84.2877C230.455 84.7775 230.43 85.2708 230.38 85.7641C229.632 93.159 223.372 98.6884 216.094 98.6884Z" fill="#BDD0FB"/>
<path d="M144.671 319.53H23.7322V151.22C23.7322 142.379 30.8992 135.212 39.7399 135.212H142.817C151.658 135.212 158.825 142.379 158.825 151.22V305.378C158.824 313.194 152.487 319.53 144.671 319.53Z" fill="#7D97F4"/>
<path d="M138.588 319.53H3.49585V138.852C3.49585 136.842 5.12534 135.213 7.13474 135.213H134.948C136.958 135.213 138.587 136.843 138.587 138.852V319.53H138.588Z" fill="#91B3FA"/>
<path d="M281.777 250.458C281.777 250.458 264.449 247.554 263.505 247.554H215.267C212.048 247.554 209.413 250.188 209.413 253.409V258.702C209.413 261.922 212.047 264.557 215.267 264.557H263.505C263.961 264.557 264.403 264.499 264.83 264.399C270.479 263.464 276.128 258.821 281.777 250.458Z" fill="url(#paint1_linear_2_10007)"/>
<path d="M281.591 251.17C347.338 94.9332 225.536 94.7982 240.707 242.652L281.591 251.17Z" fill="url(#paint2_linear_2_10007)"/>
<path d="M277.065 249.674C342.813 90.4554 217.486 94.7146 232.657 245.39L277.065 249.674Z" fill="url(#paint3_linear_2_10007)"/>
<path d="M245.052 260.211H239.929V315.605H245.052V260.211Z" fill="url(#paint4_linear_2_10007)"/>
<path d="M264.921 316.672H220.058V313.595C220.058 313.453 220.174 313.338 220.316 313.338H264.645C264.798 313.338 264.922 313.462 264.922 313.615V316.672H264.921Z" fill="url(#paint5_linear_2_10007)"/>
<path d="M215.331 307.992C215.331 307.992 200.705 318.535 203.244 325.618C203.244 325.618 219.247 318.713 221.181 313.274C223.115 307.835 220.854 305.433 220.854 305.433L215.331 307.992Z" fill="url(#paint6_linear_2_10007)"/>
<path d="M217.53 299.157L219.922 306.071C220.283 307.114 219.922 308.303 218.988 308.892C218.521 309.188 217.882 309.46 217.009 309.658C215.777 309.937 214.506 309.368 213.913 308.253L211.052 302.866L217.53 299.157Z" fill="url(#paint7_linear_2_10007)"/>
<path d="M240.804 236.923C240.804 236.923 210.761 242.13 197.874 254.035C184.987 265.94 209.703 303.915 209.703 303.915C209.703 303.915 213.752 303.89 218.659 299.684C218.659 299.684 204.005 271.123 216.635 262.794C230.834 253.43 247.197 251.321 247.197 251.321L241.095 237.84L240.804 236.923Z" fill="url(#paint8_linear_2_10007)"/>
<path d="M205.786 321.7C209.003 320.211 218.11 313.837 219.646 313.555C221.181 313.274 223.844 315.078 223.844 315.078C223.844 315.078 224.491 316.243 223.799 318.275C221.661 320.861 216.915 325.792 210.534 327.63C205.84 328.981 202.556 327.721 200.512 326.247C201.637 324.535 203.643 322.693 205.786 321.7Z" fill="url(#paint9_linear_2_10007)"/>
<path d="M210.534 327.631C216.915 325.793 221.661 320.862 223.799 318.276C223.331 319.649 222.252 321.417 219.944 323.491C214.223 328.633 203.296 330.487 200.97 330.13C199.106 329.843 199.281 328.123 200.512 326.249C202.557 327.722 205.84 328.982 210.534 327.631Z" fill="url(#paint10_linear_2_10007)"/>
<path d="M226.572 310.579C226.536 311.465 224.724 314.505 223.666 316.21C223.162 317.02 222.281 317.515 221.327 317.518C220.722 317.52 220.026 317.467 219.395 317.286C218.447 317.014 217.914 316.004 218.191 315.057L220.26 307.992L226.572 310.579Z" fill="url(#paint11_linear_2_10007)"/>
<path d="M269.723 227.905C269.723 227.905 276.395 245.746 269.723 251.171C263.051 256.596 247.134 262.704 243.579 273.51C240.024 284.316 233.989 305.317 225.915 312.755C225.915 312.755 220.241 312.204 218.118 309.944C218.118 309.944 222.717 278.593 225.75 270.548C228.377 263.582 232.246 253.527 239.663 247.906C241.786 246.298 241.416 243.749 240.432 241.274L238.639 236.766L269.723 227.905Z" fill="url(#paint12_linear_2_10007)"/>
<path d="M200.138 213.923C211.325 214.597 207.839 196.725 207.637 196.014L224.617 208.006C224.617 208.006 223.718 217.565 209.601 222.577C206.03 223.846 202.765 223.902 199.879 223.281C201.11 219.693 200.859 216.473 200.138 213.923Z" fill="url(#paint13_linear_2_10007)"/>
<path d="M178.507 208.544C182.676 205.644 187.398 208.544 187.398 208.544C192.972 212.189 197.096 213.739 200.138 213.923C200.86 216.472 201.11 219.694 199.88 223.282C193.636 221.94 189.168 217.42 187.227 215.102C186.528 214.268 185.29 214.123 184.436 214.797C183.568 215.482 182.724 216.421 182.877 217.409C183.179 219.357 180.918 219.976 180.748 219.269C180.578 218.563 181.522 214.375 181.522 214.375C181.522 214.375 177 218.921 175.236 220.668C173.471 222.415 171.251 220.668 171.251 220.668C171.251 220.668 174.338 211.443 178.507 208.544Z" fill="url(#paint14_linear_2_10007)"/>
<path d="M252.301 168.413C252.301 168.413 236.026 161.896 205.738 186.902C205.738 186.902 203.208 192.139 205.967 196.8C208.728 201.461 235.024 224.173 238.639 236.767C238.639 236.767 254.306 241.858 270.509 229.787C270.509 229.787 269.079 194.734 252.301 168.413Z" fill="url(#paint15_linear_2_10007)"/>
<path d="M220.127 162.598L228.138 172.311C228.934 173.275 229.109 174.616 228.559 175.739C227.447 178.008 224.808 181.31 218.957 180.853C217.215 180.717 215.674 179.667 214.913 178.095L209.311 166.514L220.127 162.598Z" fill="url(#paint16_linear_2_10007)"/>
<path d="M264.902 210.01C266.792 202.316 247.654 185.161 247.654 185.161L252.302 168.413C252.302 168.413 293.626 195.922 283.094 218.045C281.585 221.217 279.58 223.438 277.255 224.923C273.928 215.967 268.624 211.86 264.902 210.01Z" fill="url(#paint17_linear_2_10007)"/>
<path d="M264.915 208.89C265.119 208.89 265.303 208.753 265.354 208.546C267.286 200.678 248.757 183.96 247.969 183.253C247.783 183.087 247.498 183.101 247.33 183.288C247.164 183.474 247.18 183.759 247.365 183.926C247.555 184.095 266.28 200.986 264.477 208.33C264.417 208.573 264.566 208.817 264.808 208.877C264.843 208.886 264.879 208.89 264.915 208.89Z" fill="url(#paint18_linear_2_10007)"/>
<path d="M235.916 209.349C235.916 209.349 258.605 218.158 264.144 211.532C264.519 211.082 264.764 210.57 264.902 210.011C268.624 211.859 273.928 215.967 277.255 224.924C265.321 232.549 244.924 220.682 239.409 217.184C238.501 216.608 237.413 216.406 236.362 216.625C234.234 217.066 230.559 217.714 228.578 217.409C225.678 216.962 221.513 227.19 216.814 224.035C216.813 224.035 220.837 206.256 235.916 209.349Z" fill="url(#paint19_linear_2_10007)"/>
<path d="M202.694 148.331C202.613 148.643 204.572 169.875 204.572 169.875L216.672 168.499L217.805 148.1C217.804 148.1 204.044 143.103 202.694 148.331Z" fill="url(#paint20_linear_2_10007)"/>
<path d="M214.653 152.327L214.897 163.113C214.9 163.251 214.886 163.385 214.851 163.52C214.641 164.34 213.71 167.109 210.935 165.983C208.417 164.962 206.104 164.067 204.404 164.39C203.64 164.535 203.112 165.235 203.184 166.009C203.362 167.938 203.845 172.277 204.839 175.983C205.041 176.735 205.789 177.2 206.556 177.065C208.867 176.658 213.716 175.663 217.431 173.949C217.934 173.717 218.271 173.234 218.308 172.682C218.489 169.985 219.071 161.794 219.586 159.536C220.069 157.417 222.845 156.42 224.039 156.084C224.431 155.974 224.758 155.711 224.949 155.351C225.625 154.081 226.693 151.089 222.957 149.404C222.176 149.051 221.845 148.131 222.221 147.361C222.97 145.827 223.48 143.416 220.63 141.745C217.735 140.046 215.282 141.42 213.91 142.604C213.354 143.083 212.548 143.077 211.976 142.621C211.649 142.36 211.205 142.238 210.623 142.518C209.837 142.895 208.897 142.477 208.603 141.656C208.037 140.078 206.727 138.312 203.69 138.496C198.3 138.821 197.058 144.617 198.076 148.206C199.094 151.794 204.918 151.109 207.957 149.69C210.268 148.611 212.927 150.3 214.069 151.171C214.43 151.447 214.643 151.873 214.653 152.327Z" fill="url(#paint21_linear_2_10007)"/>
<path d="M219.635 163.464C219.635 163.464 218.129 157.135 220.527 155.889C222.925 154.643 226.15 155.78 224.936 160.112C223.428 165.5 219.635 163.464 219.635 163.464Z" fill="url(#paint22_linear_2_10007)"/>
<path d="M224.291 226.72C224.255 226.722 224.218 226.723 224.182 226.723L176.575 226.671C175.399 226.67 174.445 225.714 174.447 224.538C174.448 223.36 175.407 222.388 176.581 222.41L224.187 222.462C225.364 222.463 226.317 223.418 226.315 224.594C226.313 225.734 225.418 226.664 224.291 226.72Z" fill="url(#paint23_linear_2_10007)"/>
<path d="M133.779 183.496H173.426C176.351 183.496 179.013 185.184 180.261 187.829L198.59 226.695H149.319C147.434 226.695 145.74 225.543 145.048 223.791L130.834 187.827C130.013 185.748 131.545 183.496 133.779 183.496Z" fill="url(#paint24_linear_2_10007)"/>
<path d="M161.711 203.424C162.57 206.093 161.935 208.686 160.293 209.214C158.651 209.743 156.623 208.007 155.764 205.338C154.905 202.669 155.54 200.076 157.182 199.547C158.824 199.019 160.852 200.755 161.711 203.424Z" fill="#7D97F4"/>
<path d="M140.207 328.827C139.943 328.827 139.675 328.776 139.418 328.669C138.403 328.246 137.934 327.107 138.371 326.125L180.327 231.698C180.763 230.716 181.939 230.262 182.955 230.684C183.969 231.107 184.438 232.246 184.002 233.228L142.046 327.655C141.72 328.388 140.982 328.827 140.207 328.827Z" fill="url(#paint25_linear_2_10007)"/>
<path d="M187.472 328.827C186.697 328.827 185.959 328.389 185.634 327.655L143.678 233.228C143.241 232.246 143.71 231.106 144.725 230.684C145.739 230.262 146.916 230.715 147.353 231.698L189.309 326.124C189.745 327.107 189.276 328.246 188.262 328.669C188.004 328.776 187.736 328.827 187.472 328.827Z" fill="url(#paint26_linear_2_10007)"/>
<path d="M270.08 328.827C269.816 328.827 269.548 328.776 269.29 328.669C268.276 328.246 267.807 327.107 268.243 326.125L310.2 231.698C310.636 230.716 311.812 230.262 312.827 230.684C313.842 231.107 314.311 232.246 313.874 233.228L271.918 327.655C271.593 328.388 270.855 328.827 270.08 328.827Z" fill="url(#paint27_linear_2_10007)"/>
<path d="M317.345 328.827C316.57 328.827 315.832 328.389 315.507 327.655L273.551 233.228C273.114 232.246 273.583 231.106 274.598 230.684C275.612 230.262 276.789 230.715 277.225 231.698L319.182 326.124C319.618 327.107 319.149 328.246 318.135 328.669C317.877 328.776 317.609 328.827 317.345 328.827Z" fill="url(#paint28_linear_2_10007)"/>
<path d="M322.267 228.783C322.374 228.163 322.228 227.523 321.87 227.036C321.512 226.549 320.978 226.267 320.414 226.267H129.543C128.802 226.267 128.112 226.69 127.712 227.389C127.314 228.088 127.26 228.966 127.57 229.72L129.639 234.732C130.112 235.88 131.139 236.614 132.268 236.614H319.103C320.154 236.614 321.057 235.78 321.256 234.625L322.267 228.783Z" fill="#BDD0FB"/>
<path d="M73.9184 220.248C73.9184 220.248 94.152 184.744 87.8753 179.456C81.5986 174.168 81.487 189.527 78.9464 187.352C76.4059 185.176 80.5489 172.351 79.4209 163.439C78.2919 154.528 75.8414 142.605 72.6761 154.586C69.5107 166.567 69.9059 178.379 68.5348 172.275C67.1637 166.172 62.4355 134.357 56.3542 143.85C50.2729 153.344 48.9972 165.703 55.1271 172.904C61.257 180.105 69.4864 188.145 59.3692 182.837C49.252 177.529 42.3559 179.897 53.178 189.514C53.178 189.514 69.4513 202.981 62.386 202.35C55.3216 201.719 44.0736 209.175 55.6655 214.563C55.6628 214.562 72.1296 216.954 73.9184 220.248Z" fill="#7D97F4"/>
<path d="M65.5117 252.627C65.5117 252.627 26.0745 250.756 27.8201 241.625C29.5658 232.493 42.4369 238.608 48.1644 239.188C53.8919 239.768 50.5312 235.852 38.8656 227.64C27.1999 219.428 20.7863 207.4 33.1389 213.008C45.4915 218.617 50.4286 229.148 49.5923 221.72C48.7559 214.291 32.8779 193.379 46.3072 201.941C59.7374 210.504 58.8191 218.429 59.2242 224.68C59.6294 230.931 61.4182 212.58 65.6171 215.315C69.8159 218.049 67.432 220.857 65.9295 228.124C64.426 235.391 68.6348 229.532 70.0257 227.148C71.4166 224.763 74.834 230.483 71.4859 238.376C68.1369 246.269 65.5117 252.627 65.5117 252.627Z" fill="url(#paint29_linear_2_10007)"/>
<path d="M73.3666 294.201C73.3405 294.223 73.3225 294.251 73.3153 294.28C73.3117 294.282 73.3108 294.336 73.3126 294.294L73.318 294.183L73.3405 293.735L73.3774 292.818L73.4387 290.966L73.5332 287.249L73.6619 279.804C73.7249 274.838 73.7474 269.871 73.7312 264.903C73.7024 254.969 73.5224 245.035 73.1443 235.112C72.948 230.15 72.6968 225.193 72.3844 220.239C72.0558 215.288 71.657 210.343 71.1511 205.411C70.6415 200.48 69.9996 195.566 69.1453 190.699C68.272 185.844 67.2169 180.994 65.4722 176.45L65.4632 176.426C65.2921 175.979 65.5145 175.478 65.961 175.307C66.4039 175.137 66.9 175.355 67.0755 175.794C68.9652 180.525 70.0933 185.434 71.0493 190.347C71.982 195.267 72.6968 200.215 73.2775 205.173C73.8546 210.132 74.3236 215.1 74.7215 220.07C75.1033 225.042 75.4237 230.017 75.6884 234.995C76.2043 244.95 76.5203 254.91 76.6859 264.874C76.7697 269.855 76.8156 274.838 76.8201 279.821L76.7931 287.298L76.7489 291.042L76.712 292.92L76.6868 293.868L76.6697 294.351L76.6652 294.472C76.6643 294.508 76.6544 294.639 76.6454 294.719C76.6256 294.902 76.595 295.085 76.5563 295.262C76.2628 296.144 75.3103 296.619 74.429 296.325C73.5485 296.034 73.0731 295.082 73.3666 294.201Z" fill="#7D97F4"/>
<path d="M73.1488 296.114C73.1344 296.159 73.1272 296.206 73.129 296.252C73.1281 296.264 73.1371 296.321 73.1335 296.295L73.1236 296.225L73.0831 295.944L72.9949 295.365L72.8085 294.192L72.4187 291.836L71.6031 287.122C71.0458 283.98 70.4651 280.841 69.8638 277.707C68.6619 271.437 67.3745 265.184 65.9773 258.958C64.572 252.734 63.0604 246.535 61.3112 240.413C60.4343 237.353 59.4881 234.317 58.4258 231.33C57.3545 228.354 56.1815 225.399 54.6528 222.706L54.6402 222.684C54.4043 222.268 54.5502 221.74 54.9661 221.503C55.3766 221.27 55.897 221.41 56.1382 221.813C57.8317 224.654 59.083 227.647 60.2426 230.66C61.3886 233.677 62.4113 236.731 63.362 239.801C65.2589 245.944 66.9109 252.146 68.4566 258.372C69.9934 264.599 71.4194 270.85 72.7599 277.119C73.4306 280.254 74.0806 283.392 74.7072 286.537L75.6282 291.26L76.072 293.628L76.2872 294.82L76.3925 295.425L76.4438 295.737L76.4564 295.815L76.4789 296.007C76.4924 296.152 76.4978 296.298 76.4942 296.442C76.4033 297.367 75.5805 298.042 74.6568 297.952C73.734 297.861 73.0579 297.038 73.1488 296.114Z" fill="url(#paint30_linear_2_10007)"/>
<path d="M81.6021 227.416C81.6021 227.416 121.582 221.045 117.768 212.567C113.953 204.089 102.85 213.02 97.4127 214.911C91.976 216.803 91.1945 215.859 100.64 205.167C110.085 194.474 110.966 183.379 100.25 191.699C89.5344 200.017 93.2435 207.734 92.3352 200.314C91.4268 192.894 105.751 164.562 94.6714 176.005C83.5917 187.448 82.2377 197.188 83.2929 203.364C84.348 209.539 78.354 192.102 74.9032 195.735C71.4525 199.367 74.4216 201.547 77.5689 208.267C80.7154 214.988 75.2643 210.265 73.3584 208.267C71.4525 206.27 69.4548 212.627 74.5404 219.529C79.6252 226.429 81.6021 227.416 81.6021 227.416Z" fill="url(#paint31_linear_2_10007)"/>
<path d="M78.59 295.264C78.5522 295.106 78.5233 294.943 78.5053 294.779C78.4972 294.709 78.4873 294.588 78.4873 294.561L78.4846 294.469L78.472 294.103L78.4549 293.39L78.4306 291.982L78.4036 289.179L78.3955 283.585C78.4072 279.856 78.4504 276.129 78.5215 272.402C78.662 264.947 78.9159 257.496 79.3192 250.048C79.7333 242.601 80.2897 235.156 81.1746 227.733C81.6185 224.022 82.1622 220.318 82.8689 216.632C83.5946 212.951 84.4462 209.272 85.8776 205.711C86.0559 205.267 86.561 205.052 87.0048 205.23C87.4432 205.406 87.6593 205.901 87.4918 206.341L87.4819 206.366C86.1963 209.739 85.4158 213.359 84.773 216.982C84.1446 220.615 83.6729 224.286 83.3011 227.969C82.5584 235.338 82.1397 242.749 81.8633 250.163C81.5978 257.58 81.4807 265.005 81.4753 272.43C81.4717 276.142 81.4969 279.855 81.5528 283.566L81.6617 289.13L81.7391 291.906L81.7877 293.287L81.8165 293.968L81.8336 294.298L81.8381 294.381C81.8399 294.412 81.8372 294.348 81.8336 294.337C81.8246 294.289 81.8057 294.241 81.7778 294.199C82.0713 295.08 81.5951 296.032 80.7146 296.326C79.8359 296.622 78.8835 296.145 78.59 295.264Z" fill="url(#paint32_linear_2_10007)"/>
<path d="M59.4503 287.556H92.5541C94.7238 287.556 96.3289 289.574 95.841 291.689C93.7227 300.865 91.1848 310.176 85.9903 319.626C85.0306 321.372 83.2039 322.467 81.2125 322.467H70.4111C68.4494 322.467 66.6498 321.389 65.7198 319.661C61.5587 311.929 57.5552 302.711 55.5791 292.25C55.1191 289.815 56.9728 287.556 59.4503 287.556Z" fill="url(#paint33_linear_2_10007)"/>
<defs>
<linearGradient id="paint0_linear_2_10007" x1="350.205" y1="359.999" x2="117.291" y2="108.599" gradientUnits="userSpaceOnUse">
<stop stop-color="#DAE3FE"/>
<stop offset="1" stop-color="#E9EFFD"/>
</linearGradient>
<linearGradient id="paint1_linear_2_10007" x1="261.535" y1="222.407" x2="229.331" y2="280.541" gradientUnits="userSpaceOnUse">
<stop stop-color="#FF928E"/>
<stop offset="1" stop-color="#FE7062"/>
</linearGradient>
<linearGradient id="paint2_linear_2_10007" x1="169.43" y1="123.826" x2="269.608" y2="192.66" gradientUnits="userSpaceOnUse">
<stop stop-color="#E1473D"/>
<stop offset="1" stop-color="#E9605A"/>
</linearGradient>
<linearGradient id="paint3_linear_2_10007" x1="253.541" y1="254.919" x2="273.141" y2="136.128" gradientUnits="userSpaceOnUse">
<stop stop-color="#FF928E"/>
<stop offset="1" stop-color="#FE7062"/>
</linearGradient>
<linearGradient id="paint4_linear_2_10007" x1="238.492" y1="313.06" x2="249.563" y2="243.42" gradientUnits="userSpaceOnUse">
<stop stop-color="#FF928E"/>
<stop offset="1" stop-color="#FE7062"/>
</linearGradient>
<linearGradient id="paint5_linear_2_10007" x1="242.757" y1="313.445" x2="254.324" y2="240.684" gradientUnits="userSpaceOnUse">
<stop stop-color="#FF928E"/>
<stop offset="1" stop-color="#FE7062"/>
</linearGradient>
<linearGradient id="paint6_linear_2_10007" x1="202.864" y1="297.366" x2="211.907" y2="315.149" gradientUnits="userSpaceOnUse">
<stop stop-color="#09005D"/>
<stop offset="1" stop-color="#1A0F91"/>
</linearGradient>
<linearGradient id="paint7_linear_2_10007" x1="220.059" y1="304.443" x2="211.051" y2="304.443" gradientUnits="userSpaceOnUse">
<stop stop-color="#FEBBBA"/>
<stop offset="1" stop-color="#FF928E"/>
</linearGradient>
<linearGradient id="paint8_linear_2_10007" x1="232.524" y1="280.609" x2="194.245" y2="226.959" gradientUnits="userSpaceOnUse">
<stop stop-color="#09005D"/>
<stop offset="1" stop-color="#1A0F91"/>
</linearGradient>
<linearGradient id="paint9_linear_2_10007" x1="208.112" y1="315.346" x2="239.458" y2="356.337" gradientUnits="userSpaceOnUse">
<stop stop-color="#09005D"/>
<stop offset="1" stop-color="#1A0F91"/>
</linearGradient>
<linearGradient id="paint10_linear_2_10007" x1="223.799" y1="324.223" x2="199.578" y2="324.223" gradientUnits="userSpaceOnUse">
<stop stop-color="#4042E2"/>
<stop offset="1" stop-color="#4F52FF"/>
</linearGradient>
<linearGradient id="paint11_linear_2_10007" x1="226.572" y1="312.755" x2="218.118" y2="312.755" gradientUnits="userSpaceOnUse">
<stop stop-color="#FEBBBA"/>
<stop offset="1" stop-color="#FF928E"/>
</linearGradient>
<linearGradient id="paint12_linear_2_10007" x1="246.321" y1="307.343" x2="244.211" y2="235.609" gradientUnits="userSpaceOnUse">
<stop stop-color="#09005D"/>
<stop offset="1" stop-color="#1A0F91"/>
</linearGradient>
<linearGradient id="paint13_linear_2_10007" x1="193.961" y1="233.03" x2="150.931" y2="290.845" gradientUnits="userSpaceOnUse">
<stop stop-color="#4042E2"/>
<stop offset="1" stop-color="#4F52FF"/>
</linearGradient>
<linearGradient id="paint14_linear_2_10007" x1="200.741" y1="215.268" x2="171.251" y2="215.268" gradientUnits="userSpaceOnUse">
<stop stop-color="#FEBBBA"/>
<stop offset="1" stop-color="#FF928E"/>
</linearGradient>
<linearGradient id="paint15_linear_2_10007" x1="214.342" y1="179.952" x2="280.651" y2="228.176" gradientUnits="userSpaceOnUse">
<stop stop-color="#4042E2"/>
<stop offset="1" stop-color="#4F52FF"/>
</linearGradient>
<linearGradient id="paint16_linear_2_10007" x1="228.879" y1="171.746" x2="209.312" y2="171.746" gradientUnits="userSpaceOnUse">
<stop stop-color="#FEBBBA"/>
<stop offset="1" stop-color="#FF928E"/>
</linearGradient>
<linearGradient id="paint17_linear_2_10007" x1="223.851" y1="166.876" x2="290.161" y2="215.101" gradientUnits="userSpaceOnUse">
<stop stop-color="#4042E2"/>
<stop offset="1" stop-color="#4F52FF"/>
</linearGradient>
<linearGradient id="paint18_linear_2_10007" x1="283.685" y1="125.7" x2="267.846" y2="166.355" gradientUnits="userSpaceOnUse">
<stop stop-color="#09005D"/>
<stop offset="1" stop-color="#1A0F91"/>
</linearGradient>
<linearGradient id="paint19_linear_2_10007" x1="242.221" y1="215.623" x2="317.132" y2="345.795" gradientUnits="userSpaceOnUse">
<stop stop-color="#FEBBBA"/>
<stop offset="1" stop-color="#FF928E"/>
</linearGradient>
<linearGradient id="paint20_linear_2_10007" x1="207.306" y1="149.668" x2="222.905" y2="187.113" gradientUnits="userSpaceOnUse">
<stop stop-color="#FEBBBA"/>
<stop offset="1" stop-color="#FF928E"/>
</linearGradient>
<linearGradient id="paint21_linear_2_10007" x1="223.444" y1="161.895" x2="195.153" y2="154.593" gradientUnits="userSpaceOnUse">
<stop stop-color="#09005D"/>
<stop offset="1" stop-color="#1A0F91"/>
</linearGradient>
<linearGradient id="paint22_linear_2_10007" x1="235.591" y1="183.434" x2="221.624" y2="159.041" gradientUnits="userSpaceOnUse">
<stop stop-color="#FEBBBA"/>
<stop offset="1" stop-color="#FF928E"/>
</linearGradient>
<linearGradient id="paint23_linear_2_10007" x1="232.368" y1="214.071" x2="194.577" y2="226.466" gradientUnits="userSpaceOnUse">
<stop stop-color="#09005D"/>
<stop offset="1" stop-color="#1A0F91"/>
</linearGradient>
<linearGradient id="paint24_linear_2_10007" x1="180.454" y1="189.292" x2="153.238" y2="218.058" gradientUnits="userSpaceOnUse">
<stop stop-color="#09005D"/>
<stop offset="1" stop-color="#1A0F91"/>
</linearGradient>
<linearGradient id="paint25_linear_2_10007" x1="138.207" y1="279.677" x2="184.165" y2="279.677" gradientUnits="userSpaceOnUse">
<stop stop-color="#4042E2"/>
<stop offset="1" stop-color="#4F52FF"/>
</linearGradient>
<linearGradient id="paint26_linear_2_10007" x1="143.514" y1="279.676" x2="189.473" y2="279.676" gradientUnits="userSpaceOnUse">
<stop stop-color="#4042E2"/>
<stop offset="1" stop-color="#4F52FF"/>
</linearGradient>
<linearGradient id="paint27_linear_2_10007" x1="268.08" y1="279.677" x2="314.038" y2="279.677" gradientUnits="userSpaceOnUse">
<stop stop-color="#4042E2"/>
<stop offset="1" stop-color="#4F52FF"/>
</linearGradient>
<linearGradient id="paint28_linear_2_10007" x1="273.387" y1="279.676" x2="319.345" y2="279.676" gradientUnits="userSpaceOnUse">
<stop stop-color="#4042E2"/>
<stop offset="1" stop-color="#4F52FF"/>
</linearGradient>
<linearGradient id="paint29_linear_2_10007" x1="26.4439" y1="226.272" x2="72.9094" y2="226.272" gradientUnits="userSpaceOnUse">
<stop stop-color="#4042E2"/>
<stop offset="1" stop-color="#4F52FF"/>
</linearGradient>
<linearGradient id="paint30_linear_2_10007" x1="54.5276" y1="259.675" x2="76.4962" y2="259.675" gradientUnits="userSpaceOnUse">
<stop stop-color="#4042E2"/>
<stop offset="1" stop-color="#4F52FF"/>
</linearGradient>
<linearGradient id="paint31_linear_2_10007" x1="71.3182" y1="200.366" x2="118.025" y2="200.366" gradientUnits="userSpaceOnUse">
<stop stop-color="#4042E2"/>
<stop offset="1" stop-color="#4F52FF"/>
</linearGradient>
<linearGradient id="paint32_linear_2_10007" x1="78.3956" y1="250.791" x2="87.5491" y2="250.791" gradientUnits="userSpaceOnUse">
<stop stop-color="#4042E2"/>
<stop offset="1" stop-color="#4F52FF"/>
</linearGradient>
<linearGradient id="paint33_linear_2_10007" x1="104.63" y1="229.662" x2="37.713" y2="379.389" gradientUnits="userSpaceOnUse">
<stop stop-color="#4042E2"/>
<stop offset="1" stop-color="#4F52FF"/>
</linearGradient>
</defs>
</svg>
