<svg width="957" height="486" viewBox="0 0 957 486" fill="none" xmlns="http://www.w3.org/2000/svg">
<path d="M66.3704 465.942C66.3704 465.942 15.6062 334.492 89.8705 256.002C185.662 154.765 309.449 239.387 355.897 236.919C402.345 234.451 404.96 137.315 543.744 125.711C651.051 116.74 827.278 116.033 789.681 274.736C761.097 395.398 920.132 332.899 889.166 466.197L66.3704 465.942Z" fill="#EBF2F9"/>
<path d="M933.346 467.162H8.09386C7.59779 467.162 7.19141 466.755 7.19141 466.259V465.493C7.19141 464.996 7.59779 464.59 8.09386 464.59H933.348C933.844 464.59 934.251 464.996 934.251 465.493V466.259C934.251 466.755 933.844 467.162 933.346 467.162Z" fill="#2E3552"/>
<path d="M174.952 296.171L178.038 298.679C178.038 298.679 186.479 295.649 188.385 305.691C188.385 305.691 188.892 309.972 186.185 309.977C183.477 309.986 184.593 309.509 180.759 309.621C176.922 309.733 173.744 307.711 173.183 304.594L171.348 301.955L174.952 296.171Z" fill="#EA8E50"/>
<path d="M174.601 301.554C177.064 298.981 176.866 297.079 176.866 297.079C176.866 297.079 148.351 273.716 145.462 271.812C143.492 270.516 122.494 251.885 112.679 240.524C107.811 234.889 101.78 237.077 94.8799 239.057L89.199 240.69C82.3381 242.659 80.5528 252.263 86.1833 256.931C102.038 270.075 128.413 284.861 133.349 287.966C145.599 295.68 169.581 304.844 169.581 304.844C169.581 304.844 172.488 303.764 174.601 301.554Z" fill="#1E3D70"/>
<path d="M207.137 445.095C207.137 445.095 214.057 450.284 224.659 447.541C224.659 447.541 233.207 445.591 235.082 449.858C235.082 449.858 221.971 456.525 218.653 458.346C216.153 459.72 213.544 461.888 211.7 463.566C210.24 464.893 207.967 464.713 206.722 463.182C206.145 462.472 205.486 461.628 204.763 460.646C202.742 457.902 198.031 449.047 198.031 449.047L207.137 445.095Z" fill="#233862"/>
<path d="M211.202 442.461C211.202 442.461 206.987 452.183 197.262 450.397C197.262 450.397 177.416 433.993 163.801 416.952C159.378 411.418 155.614 405.816 153.403 400.689C144.376 379.769 120.01 348.568 104.52 332.756L143.277 318.723C143.277 318.723 155.693 343.718 172.212 374.419C184.114 396.54 198.147 421.625 211.202 442.461Z" fill="#2B478B"/>
<path d="M213.461 257.839C213.721 255.432 213.791 253.048 213.688 250.703C213.64 249.62 214.243 248.611 215.224 248.156L226.67 242.841C227.9 242.268 228.489 240.849 228.026 239.576L224.074 228.703C223.632 227.483 222.34 226.79 221.078 227.102L209.789 229.876C208.682 230.148 207.533 229.665 206.936 228.692C204.358 224.482 201.121 220.698 197.348 217.5C196.426 216.72 196.166 215.407 196.698 214.322L199.818 207.966C200.414 206.754 200 205.287 198.859 204.563L189.179 198.423C188.03 197.694 186.513 197.966 185.689 199.051L178.896 207.985C176.808 207.455 174.658 207.065 172.455 206.827C169.513 206.507 166.603 206.471 163.756 206.698C162.677 206.782 161.66 206.196 161.203 205.214L156.918 195.974C156.332 194.712 154.88 194.109 153.574 194.586L142.904 198.471C141.604 198.945 140.87 200.319 141.2 201.666L143.515 211.11C143.782 212.196 143.339 213.337 142.4 213.943C139.381 215.893 136.596 218.187 134.104 220.782C133.303 221.615 132.05 221.831 131.013 221.32L120.707 216.254C119.491 215.657 118.02 216.072 117.294 217.217L111.184 226.866C110.444 228.036 110.722 229.576 111.82 230.414L121.854 238.058C122.7 238.703 123.064 239.794 122.79 240.821C122.179 243.101 121.736 245.455 121.473 247.876C121.332 249.158 121.248 250.434 121.215 251.702C121.187 252.74 120.581 253.674 119.64 254.111L108.645 259.219C107.423 259.789 106.837 261.197 107.297 262.467L111.201 273.208C111.675 274.512 113.053 275.25 114.399 274.919L123.345 272.723C124.53 272.431 125.769 272.986 126.33 274.072C128.538 278.355 131.402 282.268 134.802 285.665C135.615 286.479 135.831 287.713 135.323 288.748L130.758 298.046C130.147 299.295 130.57 300.804 131.744 301.547L141.363 307.648C142.515 308.377 144.034 308.105 144.858 307.02L151.52 298.257C152.201 297.362 153.361 296.992 154.437 297.306C157.018 298.06 159.703 298.599 162.472 298.899C163.958 299.062 165.435 299.149 166.901 299.168C167.918 299.183 168.837 299.777 169.266 300.7L173.613 310.074C174.204 311.348 175.67 311.959 176.99 311.48L187.677 307.589C188.955 307.124 189.675 305.772 189.352 304.453L187.506 296.919C187.214 295.732 187.769 294.495 188.851 293.929C194.316 291.07 199.17 287.143 203.105 282.392C203.879 281.455 205.196 281.177 206.286 281.713L214.624 285.814C215.837 286.411 217.303 285.996 218.029 284.854L224.136 275.213C224.882 274.038 224.601 272.487 223.494 271.643L213.87 264.31C213.068 263.702 212.687 262.689 212.878 261.702C213.124 260.42 213.318 259.141 213.461 257.839ZM177.245 276.091C153.201 284.694 133.224 259.682 147.041 238.05C149.115 234.801 153.787 231.04 157.402 229.707C181.477 220.835 201.606 245.73 188.055 267.387C185.914 270.815 181.048 274.731 177.245 276.091Z" fill="#AFCDFB"/>
<path d="M172.213 374.419L163.805 416.952C159.382 411.418 155.618 405.816 153.407 400.689C144.38 379.769 120.014 348.568 104.523 332.756L143.281 318.723C143.278 318.723 155.694 343.718 172.213 374.419Z" fill="#233862"/>
<path d="M140.531 450.739C140.531 450.739 140.108 458.498 149.505 459.533C149.505 459.533 155.178 459.648 155.192 464.587H127.577C127.577 464.587 126.784 462.596 126.591 458.329C126.442 455.053 129.763 446.489 129.763 446.489L140.531 450.739Z" fill="#233862"/>
<path d="M130.566 318.722C130.566 318.722 147.833 337.712 158.794 371.923C164.758 390.537 147.864 437.336 144.571 453.594C144.571 453.594 133.237 454.556 125.488 451.557C125.488 451.557 124.899 417.973 129.431 392.088C131.967 377.603 106.696 361.106 95.6534 334.933C88.1424 317.126 97.2818 317.426 108.512 317L130.566 318.722Z" fill="#2B478B"/>
<path d="M110.633 234.002C101.025 239.433 81.3594 234.423 81.3594 234.423C81.3594 234.423 89.3469 225.284 85.7175 210.566L93.2594 214.401L101.362 218.519C101.362 218.519 101.886 221.119 102.25 225.787C102.343 226.99 102.427 228.331 102.483 229.801C107.416 231.298 110.633 234.002 110.633 234.002Z" fill="#FFB07B"/>
<path d="M145.86 317.741C145.86 319.43 143.915 320.24 143.503 320.322C139.627 321.031 128.809 325.242 119.064 326.21C110.858 327.071 103.238 326.254 94.869 324.571C93.762 324.347 91.1584 323.646 90.9734 322.583C90.7436 321.421 58.687 257.178 83.6052 229.582C84.191 228.934 89.1096 230.101 93.6079 231.169C97.7614 232.157 101.573 231.607 104.975 230.238L109.193 232.46C114.375 235.349 124.176 245.615 125.325 253.669C125.908 257.764 128.248 260.799 128.927 264.401C129.179 265.733 129.434 267.035 129.697 268.305C130.208 270.793 130.734 273.161 131.275 275.413C132.741 281.506 134.288 286.751 135.807 291.281C137.424 296.092 139.011 300.092 140.426 303.438C142.264 307.778 143.817 311.023 144.787 313.506C145.468 315.259 145.86 316.63 145.86 317.741Z" fill="#2A4E96"/>
<path d="M144.783 313.508C99.5317 292.17 83.8594 251.197 83.8594 251.197C83.8594 251.197 120.624 264.771 129.694 268.305C130.204 270.793 130.731 273.161 131.272 275.413C132.737 281.506 134.284 286.751 135.803 291.281C137.421 296.092 139.007 300.092 140.422 303.438C142.261 307.783 143.813 311.026 144.783 313.508Z" fill="#1E3D70"/>
<path d="M171.259 301.143L175.169 302.579C175.169 302.579 182.999 297.037 187.876 306.052C187.876 306.052 189.639 309.99 186.847 310.843C184.056 311.699 185.07 310.893 181.147 312.201C177.223 313.508 173.358 312.565 171.876 309.76L169.219 307.808L171.259 301.143Z" fill="#FFB07B"/>
<path d="M174.478 306.678C175.924 302.902 176.583 301.191 176.583 301.191C176.583 301.191 147.035 277.088 144.024 275.02C141.973 273.612 121.55 258.33 111.592 246.423C106.654 240.516 98.8656 237.817 91.3321 239.396L85.1299 240.698C77.6412 242.269 75.2057 251.758 81.0156 256.743C97.3774 270.782 124.975 287.065 130.121 290.451C142.895 298.86 171.148 310.641 171.148 310.641C171.148 310.641 173.343 309.643 174.478 306.678Z" fill="#2A4E96"/>
<path d="M102.251 225.789C92.8035 226.319 86.6602 218.513 86.6602 218.513C86.6602 218.513 90.9314 216.145 93.2604 214.4L101.363 218.518C101.363 218.521 101.887 221.121 102.251 225.789Z" fill="#EA8E50"/>
<path d="M106.276 216.081C106.276 216.081 91.9633 226.361 85.7022 217.343C79.4411 208.322 73.379 203.576 82.2549 196.63C91.1281 189.685 95.3124 191.879 98.1347 194.381C100.954 196.88 109.838 213.175 106.276 216.081Z" fill="#FFB07B"/>
<path d="M99.6434 186.233C99.1305 182.766 97.9759 180.325 97.9759 180.325C97.9759 180.325 97.079 184.05 90.277 183.534C83.4778 183.021 72.6989 184.205 69.1059 191.96C68.8761 192.454 68.6743 192.962 68.4921 193.481C67.8419 191.761 67.6849 189.183 67.6849 189.183C66.3929 192.521 67.6849 196.698 67.6849 196.698C67.6653 196.819 67.6485 196.942 67.6317 197.063C66.1295 198.334 64.8711 202.28 64.8711 202.28C65.3251 201.181 66.4294 200.46 67.4131 200.019C67.3823 206.053 69.829 211.955 74.1198 213.711C80.3949 216.28 80.3445 214.319 86.6588 218.51C86.6588 218.51 88.3516 216.406 87.1969 214.995C86.0422 213.582 81.6785 211.528 84.1168 209.472C86.5551 207.419 87.4519 209.73 88.3516 208.317C89.2484 206.903 84.7586 202.794 90.532 198.942C96.3083 195.094 100.156 189.7 99.6434 186.233Z" fill="#233862"/>
<path d="M766.914 451.937C766.914 451.937 767.685 464.386 770.092 464.562C770.412 464.588 782.295 464.588 782.295 464.588H797.482C797.482 464.588 797.365 460.84 792.931 460.069C788.497 459.294 781.076 456.175 778.388 450.31C775.563 444.139 766.914 451.937 766.914 451.937Z" fill="#163560"/>
<path d="M706.834 349.628C709 353.729 711.506 357.572 714.087 361.21C722.066 372.453 730.752 381.723 732.265 390.486C732.565 392.234 733.044 394.113 733.666 396.093C734.3 398.102 735.079 400.211 735.981 402.394C739.367 410.604 744.431 419.802 749.487 428.163C758.226 442.618 766.446 454.679 766.446 454.679L781.519 453.964C780.916 452.278 774.341 432.32 765.549 407.931C761.979 398.029 758.181 387.499 754.518 377.342C754.03 375.987 753.543 374.635 753.058 373.297C751.937 370.189 750.835 367.129 749.759 364.15C741.502 341.247 734.925 323.011 734.925 323.011C734.925 323.011 701.924 309.059 698.496 318.099C695.668 325.552 697.972 332.854 706.834 349.628Z" fill="#599DAD"/>
<path d="M734.555 438.444C734.555 438.444 729.033 443.563 730.112 447.204C731.189 450.842 736.172 453.269 736.844 457.715C737.517 462.16 740.21 464.587 742.635 464.587C745.059 464.587 754.187 464.587 754.187 464.587C754.187 464.587 755.972 461.456 751.662 460.514C747.354 459.571 745.729 454.346 745.998 449.493C746.267 444.643 745.594 438.175 745.594 438.175L736.438 436.018L734.555 438.444Z" fill="#233862"/>
<path d="M739.435 321.292C739.435 321.292 774.162 377.67 774.162 382.156C774.162 392.077 747.924 449.199 747.924 449.199C747.924 449.199 733.998 441.835 734.555 436.666C734.555 436.666 742.91 396.565 745.343 390.122C747.773 383.676 701.453 359.393 699.023 330.052L739.435 321.292Z" fill="#6BB7BF"/>
<path d="M756.459 292.302C756.459 292.302 763.62 296.377 765.627 296.377C767.631 296.377 775.501 294.854 777.695 295.976C779.889 297.098 783.858 301.612 784.604 303.087C785.943 305.738 779.211 304.568 776.027 302.31C775.565 301.982 774.991 301.861 774.438 301.982C772.79 302.341 769.366 302.964 767.712 302.352C765.49 301.527 753.777 300.613 753.777 300.613L756.459 292.302Z" fill="#E49963"/>
<path d="M701.973 236.79C701.973 236.79 709.397 289.601 721.689 294.333C727.754 296.667 754.561 301.957 762.493 302.49C762.493 302.49 764.435 300.913 763.961 294.493C763.961 294.493 735.876 284.173 731.885 278.56C725.946 270.207 735.571 244.437 728.121 236.591C720.672 228.743 708.122 225.371 701.973 236.79Z" fill="#ED7D2B"/>
<path d="M730.997 233.461C721.073 236.028 704.621 226.827 704.621 226.827C704.621 226.827 711.008 222.53 713.377 213.091C713.497 212.614 713.604 212.129 713.702 211.627C714.741 211.405 716.7 210.99 718.797 210.544L726.375 217.341C726.375 217.341 726.201 220.162 725.254 225.012C725.092 225.859 724.901 226.765 724.682 227.733C728.755 230.261 730.997 233.461 730.997 233.461Z" fill="#E49963"/>
<path d="M694.113 274.63C695.534 293.763 693.665 322.866 695.277 327.906C696.67 332.254 712.524 329.671 718.855 328.218C721.198 327.679 724.035 326.913 726.966 326.004C735.141 323.472 744.048 319.853 745.004 317.169C745.04 317.062 745.074 316.961 745.094 316.86C745.18 316.47 745.161 316.106 745.077 315.735C744.757 314.366 743.53 312.885 743.387 309.497C743.224 305.713 743.249 301.256 743.106 296.465C743.098 295.926 743.092 295.337 743.034 294.799L743.031 294.602C743.028 294.498 743.025 294.397 743.022 294.296C742.885 288.953 742.605 283.334 742.282 277.761C742.075 274.26 741.84 270.796 741.565 267.475C740.853 258.902 739.892 251.281 738.619 246.462C736.543 238.608 731.96 233.483 727.787 229.73L724.772 227.141C721.406 227.876 717.426 227.388 713.824 225.682C709.929 223.831 708.584 222.504 707.905 223.004C698.906 229.949 692.435 251.239 694.113 274.63Z" fill="#F99746"/>
<path d="M726.968 326.007C735.143 323.474 744.05 319.856 745.006 317.171C745.042 317.065 745.076 316.964 745.095 316.863C745.09 316.487 745.084 316.114 745.079 315.738C744.759 314.369 743.531 312.888 743.389 309.5C743.226 305.716 743.251 301.258 743.108 296.467C743.1 295.929 743.094 295.34 743.035 294.801L743.033 294.605C743.03 294.501 743.027 294.4 743.024 294.299L709.975 252.159C709.975 252.156 687.762 298.453 726.968 326.007Z" fill="#ED7D2B"/>
<path d="M726.376 217.343C726.376 217.343 726.203 220.165 725.255 225.015C717.854 222.62 714.496 215.93 713.375 213.091C713.496 212.614 713.602 212.129 713.7 211.627C714.74 211.405 716.699 210.99 718.795 210.544L726.376 217.343Z" fill="#D68D5D"/>
<path d="M727.373 221.621C727.373 221.621 711.23 218.925 713.063 208.889C714.896 198.855 714.047 191.747 724.431 193.043C734.814 194.339 736.112 198.535 736.314 202.033C736.515 205.531 731.619 222.061 727.373 221.621Z" fill="#E49963"/>
<path d="M790.909 307.482L792.332 307.945L804.45 270.642L803.027 270.179L790.909 307.482Z" fill="#4A75CB"/>
<path d="M751.183 307.099L792.301 307.976L792.353 305.513L751.236 304.637L751.183 307.099Z" fill="#4A75CB"/>
<path d="M752.043 309.032C752.043 309.032 765.255 312.518 770.21 312.151C775.165 311.786 779.285 309.427 779.907 308.196C780.529 306.964 781.841 304.782 778.466 305.183C775.095 305.587 770.49 306.305 770.347 305.654C770.204 305.006 773.096 305.068 773.096 305.068C773.096 305.068 773.971 303.795 772.869 303.75C771.768 303.705 768.559 302.832 767.365 303.427C766.174 304.025 765.072 306.227 764.201 306.137C763.329 306.044 753.144 301.545 753.144 301.545L752.043 309.032Z" fill="#E49963"/>
<path d="M705.25 238.956C705.25 238.956 706.811 292.265 718.509 298.321C724.28 301.311 750.342 309.527 758.167 310.93C758.167 310.93 760.271 309.575 760.51 303.143C760.51 303.143 733.73 289.786 730.384 283.769C725.401 274.812 737.808 250.26 731.264 241.64C724.72 233.023 712.618 228.285 705.25 238.956Z" fill="#F99746"/>
<path d="M713.374 213.091C713.374 213.091 713.189 209.649 715.311 207.674C715.311 207.674 714.571 204.221 715.936 203.652C717.301 203.082 717.584 205.986 718.209 205.528C718.834 205.074 721.62 202.911 722.814 199.725C724.008 196.538 734.935 200.398 736.207 200.97C737.48 201.542 741.574 199.439 742.37 197.73C742.37 197.73 740.095 195.91 739.072 194.544C738.049 193.178 730.885 183.96 720.88 186.578C710.874 189.195 709.51 193.974 710.078 198.073C710.65 202.173 709.277 211.716 713.374 213.091Z" fill="#2B478B"/>
<path d="M697.399 328.765L666.127 309.906C663.537 308.31 662.063 305.401 662.301 302.372C662.621 298.504 662.781 294.596 662.781 290.65C662.781 283.315 662.262 276.136 661.147 269.16C660.628 265.89 662.103 262.661 664.93 260.987L697.595 241.25C701.101 239.177 702.416 234.712 700.583 231.004L685.205 199.666C683.453 196.117 679.35 194.482 675.645 195.798L642.621 207.797C639.435 209.034 635.808 207.957 633.659 205.166C624.575 193.405 613.62 183.119 601.232 174.707C598.244 172.673 597.008 168.765 598.244 165.377L605.576 145.282C606.93 141.453 605.257 137.147 601.594 135.313L570.481 120.081C569.845 119.762 569.206 119.523 568.531 119.402C565.344 118.724 561.959 120.16 560.246 123.071L546.143 146.435L542.719 152.137C536.306 151.22 529.692 150.743 523.038 150.743C514.076 150.743 505.272 151.579 496.825 153.175C493.599 153.773 490.332 152.378 488.658 149.548L472.804 123.192C470.612 119.604 466.072 118.247 462.328 120.123L438.385 131.885L431.532 135.273C427.788 137.108 425.994 141.492 427.429 145.4L437.429 173.029C438.623 176.218 437.667 179.806 435.038 181.882C427.269 188.221 420.179 195.357 413.965 203.172C413.368 203.809 412.889 204.448 412.373 205.127C412.214 205.366 412.015 205.565 411.816 205.764C409.624 208.117 406.238 208.875 403.212 207.758L370.586 195.918C370.227 195.758 369.829 195.68 369.471 195.598C365.965 194.88 362.301 196.636 360.668 199.904L345.449 230.922C343.616 234.67 344.931 239.175 348.518 241.368L381.144 261.026C383.932 262.661 385.367 265.85 384.849 269.04C383.773 276.058 383.215 283.273 383.215 290.65C383.215 294.557 383.375 298.425 383.694 302.251C383.932 305.362 382.419 308.352 379.751 309.946L348.358 328.924C344.894 330.997 343.577 335.424 345.371 339.093L360.628 370.071C362.461 373.819 366.803 375.614 370.788 374.178L396.92 364.689C400.426 363.412 404.291 364.689 406.362 367.76C414.369 379.92 424.248 390.725 435.562 399.855C438.27 401.967 439.307 405.636 438.11 408.907L427.435 438.332C426 442.279 427.794 446.666 431.538 448.539L462.412 463.732C466.117 465.566 470.618 464.211 472.689 460.702L473.527 459.347L489.9 432.195C491.652 429.283 494.959 427.81 498.305 428.408H498.344C506.351 429.844 514.597 430.601 523.044 430.601C527.545 430.601 531.968 430.363 536.39 429.965C539.456 429.645 542.405 431.12 543.999 433.751L560.092 460.506C562.284 464.175 566.945 465.53 570.728 463.656L601.563 448.464C602.44 448.026 603.197 447.426 603.833 446.789C605.865 444.638 606.621 441.406 605.585 438.495L597.538 416.447C596.582 413.735 597.14 410.705 598.931 408.554C599.41 407.996 599.968 407.477 600.604 407.039C616.139 396.672 629.407 383.317 639.723 367.726C641.436 365.056 644.622 363.78 647.691 364.299C648.129 364.38 648.569 364.498 649.006 364.658L675.418 374.265C679.241 375.659 683.503 373.945 685.336 370.279L685.695 369.561L700.555 339.34C702.379 335.502 701.026 330.958 697.399 328.765ZM450.531 269.158C452.045 263.775 454.116 258.313 456.826 252.849C462.005 242.442 474.791 229.565 485.231 224.42C486.346 223.862 487.462 223.343 488.577 222.827C556.858 192.126 622.706 259.228 589.601 327.606C585.26 336.537 575.658 347.023 566.297 353.522C564.105 354.997 561.956 356.313 559.924 357.269C550.403 361.895 540.922 364.604 531.679 365.642C479.017 371.508 435.675 323.065 450.531 269.158Z" fill="#AFCDFB"/>
<path d="M700.516 434.284L693.538 430.073C692.961 429.717 692.63 429.066 692.683 428.39C692.753 427.527 692.79 426.654 692.79 425.773C692.79 424.135 692.675 422.534 692.425 420.977C692.31 420.247 692.638 419.527 693.269 419.154L700.558 414.75C701.34 414.287 701.635 413.291 701.226 412.463L697.792 405.471C697.4 404.68 696.486 404.315 695.659 404.607L688.289 407.285C687.577 407.56 686.767 407.322 686.287 406.699C684.261 404.074 681.814 401.779 679.051 399.9C678.384 399.445 678.109 398.573 678.384 397.818L680.021 393.333C680.324 392.48 679.951 391.518 679.132 391.109L672.187 387.709C672.044 387.639 671.902 387.586 671.753 387.558C671.041 387.406 670.287 387.726 669.903 388.377L666.756 393.591L665.991 394.865C664.559 394.66 663.084 394.553 661.599 394.553C659.598 394.553 657.633 394.741 655.75 395.095C655.03 395.229 654.301 394.918 653.928 394.284L650.388 388.402C649.901 387.6 648.886 387.3 648.051 387.718L642.706 390.343L641.176 391.1C640.341 391.51 639.94 392.489 640.26 393.361L642.491 399.527C642.757 400.239 642.544 401.039 641.958 401.501C640.226 402.915 638.643 404.508 637.255 406.253C637.121 406.396 637.014 406.539 636.899 406.688C636.863 406.741 636.818 406.786 636.776 406.831C636.286 407.356 635.532 407.524 634.856 407.277L627.575 404.635C627.494 404.598 627.407 404.581 627.326 404.565C626.544 404.405 625.725 404.797 625.361 405.527L621.964 412.449C621.555 413.285 621.849 414.292 622.648 414.78L629.929 419.168C630.551 419.532 630.871 420.245 630.756 420.957C630.515 422.522 630.392 424.132 630.392 425.779C630.392 426.651 630.428 427.515 630.498 428.368C630.551 429.061 630.212 429.728 629.618 430.085L622.612 434.32C621.838 434.783 621.544 435.771 621.944 436.59L625.35 443.504C625.759 444.34 626.729 444.741 627.617 444.421L633.449 442.303C634.231 442.017 635.094 442.303 635.557 442.988C637.345 445.703 639.548 448.113 642.073 450.152C642.678 450.623 642.908 451.442 642.642 452.172L640.26 458.738C639.94 459.619 640.341 460.598 641.176 461.016L648.065 464.407C648.892 464.817 649.898 464.514 650.358 463.731L650.545 463.428L654.2 457.369C654.592 456.719 655.33 456.39 656.075 456.525H656.083C657.872 456.845 659.71 457.013 661.596 457.013C662.6 457.013 663.586 456.96 664.575 456.87C665.259 456.8 665.918 457.128 666.274 457.714L669.867 463.686C670.357 464.505 671.397 464.808 672.241 464.39L679.121 460.999C679.317 460.901 679.485 460.766 679.628 460.626C680.082 460.146 680.251 459.425 680.021 458.775L678.224 453.855C678.011 453.249 678.135 452.573 678.535 452.093C678.642 451.97 678.768 451.852 678.908 451.754C682.375 449.439 685.337 446.458 687.638 442.979C688.02 442.382 688.731 442.099 689.415 442.214C689.513 442.231 689.611 442.259 689.707 442.295L695.601 444.438C696.453 444.749 697.406 444.368 697.815 443.549L697.896 443.389L701.212 436.643C701.626 435.787 701.324 434.772 700.516 434.284ZM645.419 420.98C645.759 419.779 646.221 418.559 646.824 417.341C647.978 415.019 650.834 412.144 653.163 410.996C653.413 410.873 653.662 410.755 653.911 410.64C669.149 403.788 683.846 418.764 676.459 434.026C675.489 436.02 673.348 438.36 671.257 439.81C670.769 440.141 670.287 440.432 669.836 440.646C667.712 441.678 665.596 442.284 663.533 442.514C651.776 443.821 642.104 433.01 645.419 420.98Z" fill="#F99746"/>
<path d="M929.437 304.016L918.977 297.707C918.111 297.174 917.618 296.201 917.697 295.186C917.803 293.892 917.856 292.585 917.856 291.264C917.856 288.81 917.683 286.411 917.31 284.075C917.136 282.981 917.629 281.901 918.577 281.34L929.504 274.74C930.676 274.047 931.116 272.552 930.505 271.312L925.362 260.83C924.776 259.643 923.403 259.096 922.164 259.536L911.119 263.55C910.054 263.963 908.84 263.604 908.12 262.67C905.082 258.737 901.419 255.295 897.274 252.482C896.276 251.803 895.861 250.496 896.276 249.363L898.728 242.642C899.182 241.363 898.622 239.921 897.397 239.307L886.991 234.213C886.778 234.106 886.565 234.027 886.338 233.985C885.273 233.758 884.141 234.238 883.566 235.214L878.849 243.029L877.703 244.936C875.559 244.63 873.345 244.471 871.12 244.471C868.121 244.471 865.178 244.751 862.353 245.284C861.274 245.483 860.181 245.018 859.62 244.069L854.318 235.253C853.583 234.053 852.064 233.598 850.814 234.227L842.807 238.162L840.515 239.295C839.262 239.91 838.662 241.377 839.141 242.684L842.485 251.926C842.886 252.992 842.563 254.193 841.686 254.886C839.088 257.006 836.717 259.393 834.638 262.008C834.439 262.221 834.279 262.434 834.105 262.661C834.052 262.743 833.985 262.807 833.917 262.874C833.183 263.663 832.051 263.915 831.039 263.542L820.126 259.581C820.005 259.528 819.873 259.5 819.753 259.475C818.581 259.233 817.354 259.823 816.807 260.914L811.718 271.29C811.104 272.543 811.544 274.05 812.743 274.785L823.657 281.36C824.59 281.907 825.069 282.972 824.896 284.041C824.537 286.389 824.349 288.801 824.349 291.27C824.349 292.577 824.402 293.87 824.509 295.149C824.587 296.19 824.083 297.188 823.189 297.724L812.69 304.072C811.53 304.765 811.09 306.246 811.69 307.472L816.793 317.833C817.407 319.087 818.859 319.688 820.19 319.208L828.931 316.033C830.103 315.606 831.398 316.033 832.09 317.059C834.769 321.127 838.074 324.739 841.857 327.794C842.762 328.501 843.11 329.727 842.709 330.821L839.139 340.664C838.659 341.985 839.259 343.452 840.512 344.077L850.84 349.157C852.078 349.772 853.583 349.317 854.278 348.145L854.559 347.69L860.035 338.607C860.621 337.634 861.728 337.14 862.846 337.34H862.86C865.539 337.819 868.297 338.075 871.122 338.075C872.627 338.075 874.107 337.993 875.587 337.861C876.613 337.755 877.599 338.248 878.132 339.129L883.516 348.077C884.25 349.306 885.808 349.758 887.072 349.132L897.386 344.052C897.68 343.906 897.932 343.704 898.145 343.491C898.824 342.77 899.079 341.69 898.731 340.717L896.041 333.342C895.721 332.436 895.906 331.421 896.506 330.703C896.666 330.515 896.853 330.344 897.066 330.195C902.262 326.728 906.699 322.26 910.152 317.045C910.724 316.15 911.791 315.724 912.817 315.898C912.963 315.923 913.111 315.965 913.257 316.019L922.091 319.233C923.369 319.699 924.796 319.127 925.409 317.901L925.53 317.659L930.499 307.55C931.104 306.271 930.65 304.751 929.437 304.016ZM846.865 284.078C847.373 282.277 848.065 280.451 848.97 278.622C850.702 275.141 854.979 270.835 858.471 269.113C858.844 268.925 859.217 268.754 859.589 268.58C882.428 258.311 904.454 280.757 893.381 303.626C891.929 306.613 888.717 310.12 885.587 312.293C884.852 312.787 884.135 313.228 883.454 313.547C880.27 315.093 877.098 316.002 874.006 316.347C856.394 318.313 841.896 302.108 846.865 284.078Z" fill="#EBF2F9"/>
<path d="M435.494 107.495L424.415 102.353C423.496 101.916 422.902 101.001 422.871 99.9859C422.837 98.6872 422.751 97.3828 422.608 96.0701C422.344 93.6297 421.913 91.2622 421.29 88.9818C420.999 87.913 421.375 86.7854 422.255 86.1262L432.406 78.3843C433.496 77.5681 433.773 76.0365 433.031 74.8696L426.789 65.0043C426.08 63.8879 424.656 63.4924 423.471 64.0646L412.922 69.2483C411.907 69.7729 410.663 69.5457 409.847 68.6958C406.403 65.1137 402.389 62.0871 397.967 59.7365C396.899 59.1671 396.35 57.9132 396.638 56.7407L398.354 49.7954C398.668 48.4743 397.956 47.1026 396.669 46.6258L385.775 42.6847C385.551 42.6005 385.333 42.5444 385.103 42.5304C384.018 42.421 382.945 43.0185 382.479 44.0507L378.631 52.3284L377.698 54.348C375.532 54.2751 373.315 54.3536 371.104 54.5949C368.122 54.9174 365.226 55.5149 362.474 56.348C361.423 56.6622 360.288 56.3171 359.63 55.4364L353.408 47.2457C352.55 46.1321 350.992 45.846 349.815 46.6033L342.278 51.3775L340.12 52.7519C338.941 53.4981 338.503 55.0212 339.12 56.2667L343.442 65.0941C343.954 66.1123 343.764 67.3381 342.965 68.1235C340.611 70.5106 338.509 73.1417 336.724 75.9636C336.547 76.1964 336.413 76.4264 336.264 76.6705C336.219 76.7546 336.16 76.8303 336.101 76.9033C335.457 77.7644 334.358 78.1375 333.313 77.8766L322.038 75.1165C321.912 75.0772 321.777 75.0632 321.654 75.052C320.463 74.9398 319.305 75.655 318.882 76.8023L314.939 87.6662C314.465 88.9789 315.065 90.4291 316.334 91.0294L327.893 96.387C328.879 96.8302 329.47 97.84 329.414 98.9172C329.311 101.29 329.384 103.708 329.65 106.163C329.79 107.461 329.983 108.743 330.227 110.003C330.418 111.029 330.023 112.076 329.193 112.704L319.437 120.148C318.358 120.962 318.08 122.482 318.809 123.638L325 133.388C325.746 134.569 327.254 135.01 328.526 134.387L336.875 130.289C337.996 129.739 339.324 130.022 340.126 130.967C343.226 134.723 346.9 137.958 350.992 140.586C351.97 141.192 352.446 142.373 352.166 143.503L349.675 153.671C349.341 155.035 350.095 156.429 351.407 156.917L362.219 160.855C363.517 161.332 364.966 160.718 365.529 159.478L365.759 158.998L370.226 149.38C370.706 148.347 371.751 147.739 372.886 147.817H372.9C375.613 148.005 378.385 147.96 381.193 147.655C382.69 147.492 384.153 147.253 385.607 146.962C386.616 146.746 387.65 147.13 388.275 147.946L394.59 156.263C395.45 157.405 397.05 157.685 398.239 156.928L407.944 150.765C408.219 150.589 408.449 150.361 408.639 150.126C409.236 149.338 409.374 148.235 408.922 147.304L405.453 140.263C405.038 139.397 405.114 138.37 405.632 137.587C405.769 137.385 405.938 137.192 406.134 137.024C410.926 133.015 414.856 128.095 417.725 122.538C418.199 121.587 419.214 121.049 420.251 121.111C420.399 121.122 420.551 121.144 420.699 121.184L429.827 123.425C431.15 123.75 432.504 123.026 432.983 121.742L433.076 121.489L436.929 110.903C437.392 109.554 436.778 108.092 435.494 107.495ZM351.255 96.5806C351.564 94.7349 352.057 92.8443 352.76 90.9313C354.108 87.2847 357.895 82.5414 361.182 80.4545C361.533 80.2272 361.886 80.0169 362.239 79.8037C383.839 67.1305 408.152 87.0687 399.606 111.001C398.485 114.129 395.669 117.961 392.79 120.46C392.115 121.029 391.448 121.545 390.806 121.935C387.807 123.817 384.752 125.06 381.714 125.739C364.414 129.587 348.257 115.041 351.255 96.5806Z" fill="#EBF2F9"/>
<path d="M502.821 419.711C503.466 420.452 503.547 421.279 503.23 422.16C503.23 422.163 503.228 422.169 503.225 422.171C502.633 423.804 500.683 425.627 498.418 427.45C498.13 427.683 497.872 427.897 497.647 428.093C497.589 428.143 497.53 428.197 497.474 428.247C497.429 428.286 497.384 428.328 497.339 428.368C495.226 430.317 496.022 430.763 492.224 434.721C487.897 439.229 484.915 439.31 484.069 438.898C483.351 438.547 484.809 436.157 486.423 433.47C486.501 433.341 486.577 433.209 486.658 433.077C486.874 432.721 487.087 432.356 487.3 431.997C489.192 428.763 488.707 427.246 488.259 422.432C487.894 418.522 482.18 400.584 482.18 400.584L490.476 399.153C490.476 399.153 492.973 413.437 495.725 415.636C497.196 416.808 498.844 416.822 500.26 417.692C500.36 417.751 500.459 417.815 500.554 417.877C501.355 418.418 502.174 418.971 502.821 419.711Z" fill="#E49963"/>
<path d="M502.819 419.712C503.464 420.453 503.545 421.28 503.228 422.161C503.228 422.164 503.226 422.169 503.223 422.172C502.5 423.805 500.597 425.617 498.408 427.434C498.122 427.673 497.87 427.892 497.646 428.094C497.587 428.144 497.528 428.197 497.472 428.248C497.427 428.287 497.382 428.329 497.337 428.368C495.224 430.318 496.02 430.764 492.222 434.722C487.895 439.23 484.913 439.311 484.067 438.899C483.349 438.548 484.807 436.158 486.421 433.471C487.265 433.162 491.177 431.572 494.137 427.779C496.743 424.45 498.481 420.175 500.255 417.695C500.356 417.754 500.454 417.819 500.549 417.88C501.353 418.419 502.172 418.972 502.819 419.712Z" fill="#C65447"/>
<path d="M435.935 414.525C435.423 417.086 431.774 416.66 427.696 415.664C423.618 414.668 424.588 415.852 418.783 415.21C412.979 414.567 411.222 412.402 411.045 411.538C410.888 410.772 413.755 410.5 416.83 410.147C417.217 410.102 417.606 410.054 417.993 410.006C421.465 409.572 424.007 407.328 427.163 405.485C430.151 403.74 434.61 396.632 434.61 396.632L442.569 397.263C442.569 397.263 438.393 403.611 436.776 406.371C435.826 407.995 435.877 410.141 435.994 411.799C436.056 412.702 436.115 413.625 435.935 414.525Z" fill="#E49963"/>
<path d="M427.696 415.664C423.618 414.668 424.588 415.852 418.783 415.21C412.979 414.567 411.222 412.402 411.045 411.538C410.888 410.772 413.755 410.5 416.83 410.147L416.858 410.206C416.858 410.206 420.339 412.674 425.171 412.792C429.108 412.887 433.279 411.76 435.997 411.804C436.059 412.705 436.118 413.625 435.935 414.528C435.423 417.089 431.774 416.663 427.696 415.664Z" fill="#C65447"/>
<path d="M453.641 297.53C453.641 297.53 451.746 292.879 449.658 292.691C447.573 292.5 440.936 291.457 440.463 292.405C439.989 293.353 440.463 296.77 441.884 298.004C443.307 299.238 452.125 301.23 452.125 301.23L453.641 297.53Z" fill="#E49963"/>
<path d="M466.434 363.592L483.586 409.79C483.586 409.79 486.22 410.046 488.748 409.316C491.072 408.646 493.737 406.884 493.737 406.884C493.737 406.884 489.482 362.523 481.68 353.297C473.88 344.074 466.434 363.592 466.434 363.592Z" fill="#AA413E"/>
<path d="M534.279 344.902C534.279 344.902 484.992 328.223 474 331.772C463.008 335.32 430.004 401.039 430.004 401.039C430.004 401.039 430.749 402.032 432.781 402.795C434.673 403.505 439.25 403.46 439.25 403.46C439.25 403.46 469.033 377.909 472.582 370.456C476.127 363.003 477.545 355.906 481.09 356.616C484.636 357.326 526.832 374.004 536.406 364.069C545.98 354.131 543.477 341.222 543.477 341.222L534.279 344.902Z" fill="#C65447"/>
<path d="M504.156 267.306C503.369 265.679 502.489 262.79 502.057 257.64C502.125 258.15 503.01 264.647 505.507 268.321C515.757 275.056 535.403 297.547 535.016 301.808C535.016 301.808 541.936 290.06 542.056 289.99C542.056 289.99 554.823 273.744 539.694 264.436C532.003 259.707 532.043 253.637 532.365 248.364C532.69 243.09 530.269 220.389 514.865 226.33C514.865 226.33 512.393 225.231 511.286 225.396C511.286 225.396 512.192 225.57 512.651 226.044C510.866 225.937 508.313 226.069 506.183 227.281C500.53 230.498 495.477 259.312 504.156 267.306Z" fill="#B5453C"/>
<path d="M506.118 268.661C506.067 268.683 511.067 271.284 514.828 270.254C518.365 269.289 520.677 264.697 520.63 264.686C519.13 264.389 518.699 262.327 518.732 253.472L518.054 253.606L506.664 255.864C506.664 255.864 506.922 259.452 506.93 262.832C506.939 265.665 506.768 268.358 506.118 268.661Z" fill="#E49963"/>
<path d="M506.664 255.862C506.664 255.862 506.922 259.449 506.93 262.829C513.303 262.65 516.672 256.832 518.051 253.606L506.664 255.862Z" fill="#D68D5D"/>
<path d="M519.228 252.363C519.228 252.363 522.569 247.082 523.37 242.565C523.942 239.34 522.303 227.39 510.302 229.11C510.302 229.11 506.818 229.455 503.542 231.668C500.935 233.429 497.177 237.23 501.381 247.659L502.474 251.182L519.228 252.363Z" fill="#B5453C"/>
<path d="M504.532 259.062C504.532 259.062 519.61 259.312 519.621 249.909C519.633 240.51 521.583 234.209 511.959 233.654C502.332 233.099 500.457 236.683 499.692 239.82C498.927 242.956 500.611 258.753 504.532 259.062Z" fill="#E49963"/>
<path d="M505.09 233.424C505.09 233.424 509.218 244.454 515.555 246.083C521.892 247.713 524.638 246.016 524.638 246.016C524.638 246.016 519.778 242.151 518.77 235.407C518.772 235.405 508.206 228.176 505.09 233.424Z" fill="#B5453C"/>
<path d="M506.115 234.319C506.115 234.319 503.032 236.781 502.281 239.174C501.53 241.567 501.191 246.495 499.756 246.327C499.756 246.327 496.645 238.832 500.14 234.591C503.848 230.097 506.115 234.319 506.115 234.319Z" fill="#B5453C"/>
<path d="M539.694 309.261C541.182 303.02 536.12 290.908 530.84 280.88C526.048 271.792 521.076 264.42 520.628 264.684C507.99 272.19 506.847 265.949 506.847 265.949C506.847 265.949 495.367 267.475 492.116 273.076C487.621 280.821 482.725 304.058 477.912 303.716C475.704 303.559 453.482 295.197 453.482 295.197C453.482 295.197 449.78 298.667 450.489 302.927C450.489 302.927 461.461 310.282 470.738 314.972C475.645 317.455 480.079 319.191 482.164 318.7C486.39 317.704 492.993 307.898 496.561 302.125C496.57 302.111 496.578 302.1 496.584 302.086C501.138 327.881 494.947 333.758 498.08 336.476C501.39 339.348 506.118 335.107 516.519 339.62C523.34 342.582 532.808 346.865 539.184 347.609C542.527 348.002 545.022 347.421 545.834 345.16C548.205 338.596 536.858 321.16 539.694 309.261Z" fill="#699DEE"/>
<path d="M507.885 253.362C507.885 253.362 507.604 254.557 504.636 254.372C504.636 254.372 502.145 254.218 502.22 252.905C502.22 252.905 504.636 251.974 507.885 253.362Z" fill="white"/>
<path d="M545.84 345.162C545.027 347.421 542.532 348.004 539.189 347.611C534.777 345.687 515.722 338.299 515.935 333.292C516.252 325.878 519.598 325.642 517.236 316.492C515.338 309.146 532.945 295.485 535.753 292.518C541.033 302.546 541.179 303.02 539.693 309.261C536.857 321.16 548.205 338.596 545.84 345.162Z" fill="#4A75CB"/>
<path d="M496.57 302.125C493.002 307.898 486.399 317.704 482.172 318.7C480.087 319.193 475.654 317.454 470.746 314.972C474.328 315.898 477.809 315.872 481.189 315.544C484.852 315.188 485.917 310.694 491.707 303.951C495.463 299.581 496.385 300.68 496.57 302.125Z" fill="#4A75CB"/>
<path d="M514.223 316.316C514.223 316.316 511.031 313.83 508.018 314.422C505.003 315.014 503.526 317.084 503.643 318.029C503.761 318.975 505.358 321.637 507.662 321.875C509.969 322.111 516.527 320.456 516.527 320.456L514.223 316.316Z" fill="#E49963"/>
<path d="M520.627 264.687C520.627 264.687 532.917 265.444 537.171 271.382C543.16 279.741 553.561 313.873 550.725 321.679L513.335 321.522C513.335 321.522 512.429 317.284 513.688 315.233C514.949 313.183 535.436 309.87 536.383 308.925C537.328 307.977 524.565 290.47 524.565 287.632C524.562 284.79 520.627 264.687 520.627 264.687Z" fill="#699DEE"/>
<path d="M502.784 304.543H457.586L465.747 333.025H511.013L502.784 304.543Z" fill="#1C468A"/>
<path d="M525.08 331.914H465.902V333.025H525.08V331.914Z" fill="#163560"/>
<path d="M483.744 318.321C483.458 317.319 482.413 316.509 481.412 316.509C480.411 316.509 479.834 317.319 480.12 318.321C480.406 319.322 481.451 320.133 482.452 320.133C483.452 320.135 484.03 319.322 483.744 318.321Z" fill="#163560"/>
<path d="M335.636 385.084V397.154C335.636 399.645 333.598 401.684 331.109 401.684H259.808C257.316 401.684 255.281 399.645 255.281 397.154V385.084C255.281 382.593 257.319 380.554 259.808 380.554H331.109C333.598 380.551 335.636 382.59 335.636 385.084Z" fill="#F99746"/>
<path d="M335.636 394.957V397.154C335.636 399.645 333.598 401.684 331.109 401.684H259.808C257.316 401.684 255.281 399.645 255.281 397.154V394.775H334.338C334.786 394.775 335.224 394.84 335.636 394.957Z" fill="#ED7D2B"/>
<path d="M272.444 401.684L269.23 413.869C269.23 413.869 269.23 413.869 269.227 413.871L255.844 464.584H254.438L262.17 422.511C262.178 422.469 262.19 422.427 262.195 422.382L266.021 401.574L272.444 401.684Z" fill="#E8C6A7"/>
<path d="M272.446 401.684L269.231 413.869C269.231 413.869 269.231 413.869 269.228 413.871C269.043 413.961 263.191 416.991 262.199 422.382L266.025 401.574L272.446 401.684Z" fill="#C69D7B"/>
<path d="M335.637 464.587H334.23L323.328 423.277C323.328 423.274 323.328 423.274 323.328 423.268L320.85 413.874C320.847 413.872 320.847 413.872 320.847 413.872L317.633 401.687L324.054 401.577L326.243 413.473L327.879 422.385C327.888 422.43 327.899 422.472 327.904 422.514L335.637 464.587Z" fill="#E8C6A7"/>
<path d="M313.9 417.642C313.892 417.645 313.886 417.642 313.878 417.628C313.847 417.575 313.855 417.586 313.9 417.642Z" fill="#E8C6A7"/>
<path d="M326.24 413.473C325.054 415.198 323.42 418.441 323.328 423.268L320.85 413.874C320.847 413.872 320.847 413.872 320.847 413.872L317.633 401.687L324.054 401.577L326.24 413.473Z" fill="#C69D7B"/>
<path d="M245.498 142.897C247.155 141.169 248.281 141.817 248.281 141.817C248.281 141.817 267.849 156.855 269.716 157.949C271.582 159.043 297.033 159.78 297.033 159.78C297.033 159.78 307.226 159.665 309.701 164.902C311.851 169.455 310.334 173.374 308.115 176.252C305.472 179.682 300.974 181.11 296.82 179.895C287.49 177.172 268.934 171.609 265.461 169.483C257.734 164.751 243.777 145.862 243.777 145.862C243.777 145.862 244.195 144.255 245.498 142.897Z" fill="#599DAD"/>
<path d="M266.591 128.288L256.821 122.398C256.011 121.899 255.551 120.99 255.627 120.044C255.725 118.835 255.775 117.615 255.775 116.381C255.775 114.089 255.613 111.848 255.265 109.666C255.103 108.645 255.565 107.635 256.448 107.113L266.655 100.948C267.751 100.3 268.16 98.9057 267.588 97.7472L262.785 87.9548C262.235 86.8468 260.954 86.3363 259.797 86.7458L249.48 90.4962C248.486 90.8833 247.353 90.5467 246.681 89.6743C243.842 85.9997 240.42 82.7851 236.549 80.1568C235.616 79.5229 235.229 78.2999 235.616 77.2424L237.906 70.9647C238.329 69.7698 237.805 68.4234 236.661 67.8511L226.942 63.0938C226.743 62.9928 226.544 62.9199 226.331 62.8834C225.336 62.673 224.276 63.119 223.741 64.0307L219.335 71.3294L218.265 73.1106C216.261 72.8245 214.195 72.6758 212.116 72.6758C209.316 72.6758 206.564 72.9367 203.926 73.4359C202.917 73.6239 201.897 73.1863 201.376 72.3027L196.421 64.0699C195.737 62.9479 194.319 62.5244 193.147 63.1106L185.667 66.7852L183.526 67.8455C182.357 68.4177 181.797 69.7894 182.245 71.0096L185.37 79.6435C185.743 80.6393 185.446 81.7613 184.625 82.4093C182.198 84.3896 179.983 86.6196 178.041 89.06C177.853 89.2591 177.705 89.4583 177.542 89.6715C177.492 89.7472 177.43 89.8089 177.369 89.8706C176.685 90.6056 175.625 90.8412 174.681 90.4934L164.488 86.7935C164.376 86.743 164.252 86.7178 164.14 86.6925C163.044 86.4681 161.901 87.0151 161.391 88.0389L156.637 97.7303C156.066 98.9 156.475 100.308 157.596 100.995L167.789 107.136C168.661 107.646 169.109 108.642 168.947 109.641C168.61 111.834 168.437 114.086 168.437 116.392C168.437 117.612 168.487 118.821 168.585 120.016C168.661 120.987 168.187 121.921 167.352 122.42L157.543 128.35C156.461 128.998 156.049 130.381 156.609 131.525L161.377 141.206C161.948 142.375 163.305 142.936 164.552 142.487L172.716 139.523C173.812 139.124 175.02 139.523 175.665 140.482C178.167 144.28 181.253 147.657 184.787 150.51C185.634 151.169 185.956 152.316 185.583 153.337L182.248 162.529C181.8 163.764 182.36 165.132 183.529 165.719L193.175 170.465C194.333 171.037 195.74 170.614 196.387 169.52L196.648 169.096L201.763 160.614C202.309 159.705 203.343 159.245 204.389 159.43H204.4C206.903 159.879 209.478 160.114 212.116 160.114C213.523 160.114 214.904 160.039 216.286 159.915C217.245 159.817 218.164 160.277 218.663 161.099L223.691 169.458C224.374 170.605 225.832 171.026 227.015 170.442L236.647 165.696C236.922 165.559 237.157 165.371 237.356 165.172C237.992 164.499 238.228 163.489 237.903 162.58L235.386 155.68C235.086 154.832 235.263 153.884 235.82 153.214C235.969 153.04 236.146 152.877 236.345 152.74C241.199 149.5 245.344 145.329 248.567 140.457C249.102 139.621 250.097 139.222 251.056 139.385C251.193 139.41 251.33 139.447 251.465 139.497L259.716 142.499C260.91 142.933 262.241 142.398 262.815 141.253L262.928 141.029L267.569 131.587C268.146 130.392 267.723 128.973 266.591 128.288ZM189.459 109.663C189.933 107.98 190.58 106.274 191.424 104.569C193.041 101.318 197.038 97.2928 200.297 95.6883C200.645 95.5144 200.995 95.3517 201.342 95.189C222.676 85.5986 243.247 106.563 232.906 127.927C231.549 130.718 228.55 133.994 225.624 136.025C224.941 136.485 224.268 136.897 223.635 137.194C220.661 138.639 217.699 139.486 214.809 139.811C198.36 141.64 184.818 126.507 189.459 109.663Z" fill="#F99746"/>
<path d="M223.873 147.822C223.873 147.822 223.902 140.591 222.761 138.487C221.62 136.383 219.005 133.755 217.517 134.597C216.029 135.438 215.572 142.484 216.029 143.747C216.486 145.009 219.869 149.741 219.869 149.741L223.873 147.822Z" fill="#FFB27D"/>
<path d="M313.444 380.55C315.056 379.17 314.089 371.442 314.089 371.442C314.089 371.442 305.796 364.8 304.655 369.886C303.514 374.971 296.774 377.254 292.94 377.877C290.381 378.292 289.532 379.675 289.246 380.553H313.444V380.55Z" fill="#2C3A64"/>
<path d="M314.375 371.801C306.695 372.994 303.887 371.165 303.887 371.165C303.985 363.594 301.653 346.525 298.456 326.929C294.24 301.089 288.523 270.851 284.91 252.209C282.834 241.488 281.449 234.602 281.449 234.602L287.724 234.478L319.024 233.858C319.024 233.858 316.681 268.531 317.323 285.653C317.477 289.74 317.802 292.831 318.368 294.209C323.705 307.185 314.375 371.801 314.375 371.801Z" fill="#35488B"/>
<path d="M317.323 285.656C313.071 293.62 302.418 314.133 298.455 326.929C294.24 301.089 288.523 270.851 284.91 252.209C285.09 245.163 285.93 239.006 287.724 234.478L319.024 233.858C319.024 233.861 316.684 268.531 317.323 285.656Z" fill="#2C3A64"/>
<path d="M287.085 380.55C288.696 379.17 287.729 371.442 287.729 371.442C287.729 371.442 279.436 364.8 278.296 369.886C277.155 374.971 270.417 377.254 266.581 377.877C264.022 378.292 263.17 379.675 262.887 380.553H287.085V380.55Z" fill="#2C3A64"/>
<path d="M267.844 233.851C267.844 233.851 280.142 347.721 277.703 370.686C277.703 370.686 280.332 372.745 288.087 372.273C288.087 372.273 302.134 306.675 299.158 296.058C297.089 288.678 305.329 236.552 305.329 236.552L267.844 233.851Z" fill="#35488B"/>
<path d="M298.113 152.42C298.113 152.42 282.478 160.235 274.723 156.672C274.723 156.672 277.982 152.451 281.631 150.698C281.553 149.306 281.508 148.05 281.485 146.936C281.415 143.234 281.603 141.149 281.603 141.149L288.346 136.241L292.92 132.908C292.66 134.97 292.618 136.875 292.735 138.622C293.338 147.629 298.113 152.42 298.113 152.42Z" fill="#FFB27D"/>
<path d="M292.735 138.622C292.735 138.622 289.089 145.898 281.488 146.936C281.418 143.233 281.606 141.149 281.606 141.149L288.349 136.24C291.295 137.348 292.735 138.622 292.735 138.622Z" fill="#ED975D"/>
<path d="M279.86 140.678C279.86 140.678 293.856 145.665 296.824 136.897C299.795 128.125 303.601 122.863 294.789 119.306C285.978 115.75 283.099 118.507 281.398 121.191C279.694 123.876 276.295 139.155 279.86 140.678Z" fill="#FFB27D"/>
<path d="M320.017 233.85C317.825 238.419 269.323 238.215 266.927 234.995C265.951 233.685 264.836 220.582 264.194 205.345C263.841 196.905 263.633 187.811 263.673 179.707C263.746 166.484 264.485 155.898 266.346 155.09C276.741 150.577 283.168 147.705 296.747 148.12C300.934 148.249 304.723 150.67 306.547 154.442C309.81 161.2 314.44 173.172 314.793 187.315C315.342 209.107 322.775 228.094 320.017 233.85Z" fill="#6BB7BF"/>
<path d="M279.365 170.735C279.365 170.735 277.787 193.523 264.194 205.349C263.841 196.908 263.633 187.814 263.673 179.711C267.734 174.275 273.092 170.361 279.365 170.735Z" fill="#599DAD"/>
<path d="M286.053 148.605C286.053 148.605 271.137 148.697 266.454 153.048C263.099 156.167 241.544 173.171 240.174 172.941C238.803 172.711 224.927 144.986 224.927 144.986C224.927 144.986 218.086 145.567 216.945 148.532C216.945 148.532 223.397 183.152 237.32 190.678C237.32 190.678 272.519 183.996 282.961 172.344C288.34 166.344 286.053 148.605 286.053 148.605Z" fill="#6BB7BF"/>
<path d="M280.478 114.347C280.478 114.347 281.304 122.715 283.816 124.998C286.327 127.281 285.662 130.426 285.937 130.883C286.212 131.34 288.81 129.997 289.267 130.765C290.318 132.535 288.675 133.826 287.636 134.255C286.599 134.684 290.287 141.865 292.994 142.131C297.677 142.588 304.914 129.626 305.525 125.826C306.324 120.858 303.512 113.108 295.452 113.489C282.79 114.089 280.223 111.34 280.478 114.347Z" fill="#2B478B"/>
<path d="M658.522 77.708H643.57V170.936H658.522V77.708Z" fill="#AFCDFB"/>
<path d="M683.694 51.7227H668.742V170.937H683.694V51.7227Z" fill="#AFCDFB"/>
<path d="M710.425 100.255H695.473V170.939H710.425V100.255Z" fill="#AFCDFB"/>
<path d="M682.874 33.8965H670.211C669.491 33.8965 668.902 34.4855 668.902 35.2064C668.902 35.9273 669.491 36.5164 670.211 36.5164H682.874C683.594 36.5164 684.182 35.9273 684.182 35.2064C684.182 34.4855 683.594 33.8965 682.874 33.8965Z" fill="#AFCDFB"/>
<path d="M673.091 41.2879C673.811 41.2879 674.4 40.6988 674.4 39.9779C674.4 39.257 673.811 38.668 673.091 38.668H670.207C669.487 38.668 668.898 39.257 668.898 39.9779C668.898 40.6988 669.487 41.2879 670.207 41.2879H673.091Z" fill="#AFCDFB"/>
<path d="M709.28 86.3398H696.617C695.897 86.3398 695.309 86.9289 695.309 87.6498C695.309 88.3707 695.897 88.9626 696.617 88.9626H709.28C710 88.9626 710.589 88.3735 710.589 87.6498C710.589 86.9317 710 86.3398 709.28 86.3398Z" fill="#AFCDFB"/>
<path d="M696.617 93.7332H699.501C700.222 93.7332 700.81 93.1441 700.81 92.4232C700.81 91.7023 700.222 91.1133 699.501 91.1133H696.617C695.897 91.1133 695.309 91.7023 695.309 92.4232C695.309 93.1441 695.897 93.7332 696.617 93.7332Z" fill="#AFCDFB"/>
</svg>
